<?xml version="1.0" standalone="no"?>
<!DOCTYPE svg PUBLIC "-//W3C//DTD SVG 20010904//EN"
 "http://www.w3.org/TR/2001/REC-SVG-20010904/DTD/svg10.dtd">
<svg version="1.0" xmlns="http://www.w3.org/2000/svg"
 width="1080.000000pt" height="1080.000000pt" viewBox="0 0 1080.000000 1080.000000"
 preserveAspectRatio="xMidYMid meet">
<metadata>
Created by potrace 1.14, written by Peter Selinger 2001-2017
</metadata>
<g transform="translate(0.000000,1080.000000) scale(0.100000,-0.100000)"
fill="#000000" stroke="none">
<path d="M5355 9430 c-23 -26 -27 -47 -13 -74 15 -28 28 -36 59 -36 53 0 82
68 46 108 -26 28 -68 29 -92 2z"/>
<path d="M3410 9324 c-161 -93 -365 -238 -515 -365 -175 -149 -252 -223 -430
-420 -113 -123 -292 -371 -405 -559 -248 -413 -442 -967 -505 -1445 -3 -16 -7
-50 -11 -75 -31 -227 -36 -701 -9 -890 3 -19 7 -57 10 -85 3 -27 10 -75 15
-105 5 -30 12 -73 15 -95 29 -199 150 -620 230 -800 7 -16 25 -59 40 -95 31
-74 128 -266 180 -355 19 -33 37 -67 41 -75 6 -14 91 -128 104 -140 3 -3 20
-23 39 -45 185 -218 543 -573 756 -750 33 -28 62 -53 65 -56 14 -17 100 -78
100 -70 0 5 -7 14 -15 21 -17 14 -131 203 -169 280 -14 30 -31 62 -36 70 -9
13 -57 117 -112 240 -19 44 -142 290 -189 380 -13 25 -27 47 -31 48 -5 2 -8 8
-8 13 0 17 -137 238 -229 369 -110 157 -147 230 -131 259 17 33 49 26 148 -37
120 -76 268 -138 382 -162 81 -16 365 -9 358 10 -2 4 -35 43 -75 86 -39 43
-82 93 -94 109 -13 17 -26 32 -30 35 -3 3 -42 53 -85 112 -293 396 -496 860
-589 1346 -2 13 -7 31 -9 40 -3 10 -8 31 -10 47 -10 75 -18 132 -22 155 -17
108 -24 519 -10 660 4 41 8 89 10 105 1 17 5 44 9 60 3 17 9 47 12 69 8 61 46
237 65 311 6 22 13 50 15 62 3 12 17 54 31 95 14 40 26 78 28 83 18 73 93 250
170 405 124 248 238 423 426 654 115 141 364 381 489 471 78 56 64 77 -19 29z"/>
<path d="M7320 9341 c0 -5 24 -26 53 -48 167 -128 382 -341 536 -533 73 -91
254 -353 272 -395 5 -11 19 -36 30 -55 125 -206 280 -604 338 -865 6 -27 14
-59 16 -70 9 -36 36 -189 41 -230 3 -22 7 -46 9 -52 9 -26 19 -223 19 -368 0
-203 -15 -413 -40 -538 -2 -12 -6 -39 -10 -62 -5 -37 -16 -93 -28 -154 -49
-230 -184 -597 -299 -811 -132 -246 -307 -500 -459 -665 -99 -108 -100 -109
-81 -116 18 -6 81 -10 203 -13 138 -4 304 47 477 146 133 77 147 84 161 82 6
-1 16 -2 21 -3 21 -3 17 -53 -7 -99 -26 -49 -92 -153 -102 -162 -9 -7 -119
-173 -160 -240 -18 -30 -40 -66 -48 -80 -9 -14 -16 -27 -16 -30 0 -3 -15 -30
-34 -60 -18 -30 -70 -131 -116 -225 -46 -93 -133 -271 -194 -395 -61 -124
-136 -263 -167 -310 -31 -47 -59 -89 -63 -95 -8 -13 62 39 108 81 125 111 177
160 270 254 118 119 228 236 310 329 30 35 66 76 80 91 30 33 39 45 122 147
35 43 69 84 76 91 7 8 25 30 40 50 15 21 32 42 37 48 23 25 132 178 152 214
27 47 127 272 155 349 11 31 25 67 31 81 6 14 11 30 13 35 2 6 20 62 40 125
20 63 40 131 45 150 29 122 50 209 54 235 3 17 8 41 10 55 3 14 8 36 10 50 5
23 9 51 20 125 3 17 7 55 10 85 4 30 8 66 10 80 23 142 23 692 0 809 -1 9 -6
45 -10 81 -4 36 -9 74 -11 85 -2 11 -7 40 -10 65 -5 36 -37 199 -59 295 -3 11
-7 29 -9 40 -2 12 -25 90 -51 175 -110 366 -277 719 -498 1050 -44 66 -201
277 -216 290 -3 3 -31 34 -61 70 -78 92 -279 293 -385 384 -160 139 -364 286
-551 399 -62 37 -84 45 -84 28z"/>
<path d="M5398 8805 c-3 -6 -13 -37 -22 -70 -46 -164 -112 -230 -286 -280
l-74 -22 54 -13 c30 -7 60 -16 65 -20 6 -5 13 -9 18 -9 4 0 22 -7 41 -15 83
-35 158 -138 186 -253 11 -49 30 -72 30 -38 0 9 11 47 25 87 22 63 54 117 92
156 23 24 119 69 186 87 l68 18 -73 22 c-95 28 -151 57 -195 103 -42 43 -81
124 -97 202 -7 30 -14 50 -18 45z"/>
<path d="M5356 7585 c-14 -10 -20 -26 -19 -51 2 -62 63 -85 108 -39 30 29 31
45 4 79 -23 29 -63 34 -93 11z"/>
<path d="M5397 6860 c-3 -8 -17 -51 -30 -95 -14 -44 -31 -93 -38 -110 -7 -16
-13 -32 -14 -35 -5 -22 -102 -202 -145 -270 -68 -108 -182 -283 -190 -290 -3
-3 -28 -36 -55 -75 -27 -38 -51 -72 -55 -75 -3 -3 -36 -52 -74 -110 -119 -180
-248 -459 -270 -585 -3 -16 -8 -43 -12 -59 -5 -25 -1 -34 32 -64 105 -94 186
-176 245 -250 151 -184 325 -563 373 -812 9 -46 18 -85 20 -87 4 -5 61 78 93
137 32 58 68 162 78 220 3 19 7 47 9 62 6 38 14 48 37 48 21 0 25 -7 33 -55
19 -104 47 -199 80 -263 35 -70 106 -169 106 -149 0 22 0 22 11 59 5 18 12 49
15 68 28 179 194 539 336 732 56 76 194 221 276 291 29 25 32 32 26 65 -25
148 -108 354 -224 552 -22 38 -93 142 -156 231 -95 132 -228 331 -299 444 -74
120 -152 296 -184 418 -10 39 -21 65 -24 57z"/>
<path d="M3740 5732 c-13 -48 -31 -105 -41 -127 -9 -22 -35 -83 -57 -135 -22
-52 -51 -120 -65 -150 -25 -57 -66 -164 -72 -190 -30 -126 -37 -180 -37 -285
-1 -66 2 -131 5 -145 3 -14 11 -50 17 -80 13 -58 57 -178 72 -195 4 -5 34 -10
66 -12 58 -2 118 -8 162 -17 14 -3 41 -8 60 -10 19 -3 42 -7 50 -10 8 -3 26
-7 40 -10 121 -20 410 -159 544 -261 26 -19 49 -35 52 -35 17 0 226 -181 333
-287 68 -68 124 -123 125 -121 1 2 36 55 78 118 l77 115 -10 55 c-13 72 -38
177 -51 209 -5 14 -12 36 -14 49 -15 79 -143 346 -227 474 -128 197 -267 332
-552 538 -344 249 -457 366 -509 528 l-22 70 -24 -86z"/>
<path d="M7022 5769 c-14 -47 -43 -121 -52 -129 -3 -3 -17 -23 -33 -45 -58
-84 -169 -187 -325 -300 -343 -249 -476 -366 -584 -510 -33 -44 -65 -87 -71
-95 -41 -52 -158 -288 -202 -405 -40 -106 -80 -253 -94 -344 l-9 -55 74 -105
c41 -59 76 -110 78 -116 2 -5 48 35 102 90 348 353 744 588 1063 631 25 3 49
8 52 10 3 2 51 6 105 9 120 8 122 9 163 138 83 260 60 490 -79 802 -87 195
-126 297 -169 444 -6 21 -8 19 -19 -20z"/>
<path d="M2285 4509 c26 -34 194 -286 239 -357 106 -167 207 -360 346 -657 92
-197 186 -385 212 -422 15 -23 28 -45 28 -48 0 -15 154 -206 222 -275 93 -94
123 -121 223 -197 174 -132 401 -251 605 -317 47 -15 92 -30 100 -34 8 -3 22
-7 30 -8 8 -1 56 -11 105 -23 110 -27 122 -29 171 -36 21 -3 48 -8 59 -10 120
-25 439 -22 622 6 l73 12 -70 46 c-214 142 -369 379 -416 636 -3 17 -9 49 -13
71 -9 45 -6 230 3 279 4 17 8 44 11 62 7 57 52 208 79 266 14 32 26 60 26 63
0 3 9 18 20 34 l19 27 -67 69 c-37 39 -96 94 -132 124 -36 30 -67 57 -70 60
-18 18 -179 136 -250 182 -217 144 -455 242 -665 274 -162 25 -393 24 -595 -1
-122 -16 -184 -20 -305 -20 -158 1 -182 4 -292 41 -75 25 -241 105 -267 128
-6 6 -23 17 -36 25 -22 12 -24 12 -15 0z"/>
<path d="M8480 4490 c-61 -44 -255 -137 -303 -144 -7 -1 -17 -4 -22 -8 -6 -3
-29 -9 -51 -12 -22 -4 -51 -9 -64 -12 -31 -7 -265 -6 -300 1 -24 5 -44 7 -190
21 -36 3 -83 8 -105 10 -80 8 -312 5 -380 -5 -95 -14 -210 -39 -262 -56 -248
-84 -416 -179 -675 -380 -106 -82 -298 -262 -298 -280 0 -6 13 -36 29 -66 29
-54 88 -220 96 -268 2 -14 10 -64 18 -111 14 -82 15 -261 2 -325 -19 -97 -64
-231 -102 -305 -80 -154 -212 -302 -338 -375 -25 -15 -44 -30 -41 -32 37 -37
550 -50 706 -18 14 3 65 12 115 21 49 8 92 17 95 19 4 2 21 7 39 10 50 9 296
91 360 121 136 62 244 122 346 190 125 84 179 128 285 234 181 182 263 300
396 575 214 444 244 508 244 516 0 5 5 9 10 9 6 0 10 5 10 10 0 26 134 253
267 453 79 121 143 220 141 222 -2 2 -14 -5 -28 -15z"/>
<path d="M5385 4200 c-11 -49 -79 -179 -139 -265 -241 -347 -289 -434 -336
-615 -15 -53 -15 -55 -23 -100 -4 -19 -10 -48 -13 -65 -10 -51 -11 -234 -2
-289 5 -28 11 -64 14 -81 3 -16 15 -57 26 -90 67 -202 184 -355 372 -489 113
-80 136 -78 281 32 203 154 328 371 363 627 28 208 -20 470 -121 670 -22 44
-45 90 -51 102 -6 13 -14 23 -18 23 -5 0 -8 5 -8 10 0 6 -12 28 -27 49 -16 21
-35 49 -43 61 -8 12 -35 50 -60 84 -93 125 -154 236 -180 324 -15 50 -26 53
-35 12z"/>
<path d="M780 4027 c-3 -3 -35 -8 -72 -11 -37 -4 -77 -9 -90 -11 -29 -6 -65
-13 -103 -21 -86 -17 -220 -76 -319 -139 -61 -39 -167 -138 -186 -174 l-12
-24 48 8 c27 4 66 9 86 11 21 2 50 6 65 8 147 27 912 28 1173 2 25 -3 76 -8
115 -11 38 -4 79 -9 90 -11 11 -2 40 -6 65 -9 25 -3 59 -7 75 -10 17 -3 46 -7
65 -10 19 -2 46 -7 60 -10 13 -2 40 -7 60 -10 29 -5 124 -25 237 -50 12 -3 34
-10 48 -15 13 -5 30 -8 37 -5 7 2 38 6 67 10 30 3 57 7 59 9 2 2 -12 20 -32
39 -44 44 -249 145 -466 230 -158 62 -338 124 -389 133 -14 3 -28 7 -31 9 -4
2 -22 7 -41 10 -19 3 -52 10 -74 15 -22 5 -62 12 -90 15 -27 4 -61 9 -75 11
-34 7 -365 16 -370 11z"/>
<path d="M9788 4025 c-2 -2 -43 -6 -92 -10 -50 -4 -99 -9 -110 -11 -12 -2 -48
-9 -81 -14 -278 -45 -924 -300 -1024 -404 -19 -20 -31 -37 -25 -38 5 0 20 -2
34 -3 14 -1 42 -5 63 -9 24 -4 63 1 110 14 76 20 87 23 207 45 124 23 151 27
250 41 30 4 57 8 60 9 3 1 37 4 75 9 39 4 86 9 105 12 19 2 64 6 100 8 36 3
106 8 155 12 179 14 771 7 935 -10 19 -3 64 -7 100 -10 36 -4 82 -11 102 -15
20 -5 39 -6 42 -3 8 7 -39 68 -84 110 -101 97 -306 203 -437 227 -119 22 -257
37 -360 39 -67 2 -124 2 -125 1z"/>
<path d="M2277 3514 c-1 -1 -20 -4 -42 -8 -246 -36 -493 -122 -855 -299 -219
-106 -329 -181 -670 -452 -170 -135 -204 -162 -224 -180 -6 -6 -54 -44 -106
-85 -52 -41 -99 -78 -105 -83 -30 -25 -166 -122 -202 -145 -41 -26 -55 -45
-31 -41 11 2 149 -11 168 -16 5 -1 103 -17 130 -20 8 -2 47 -8 85 -15 39 -7
80 -14 92 -15 12 -2 34 -6 50 -9 46 -10 76 -16 108 -21 17 -2 44 -7 60 -10 54
-10 139 -25 180 -30 22 -4 47 -8 55 -10 8 -3 31 -7 50 -9 85 -12 397 -58 420
-62 14 -2 52 -7 85 -10 33 -3 62 -7 65 -9 3 -2 51 -7 105 -12 179 -14 582 -7
685 11 14 3 51 7 82 10 46 5 199 34 268 51 189 46 427 144 625 258 91 52 235
148 235 156 0 4 -13 14 -29 24 -38 22 -175 134 -231 188 -25 24 -81 68 -125
98 -289 196 -573 449 -779 694 -49 57 -49 58 -98 55 -27 -2 -50 -4 -51 -4z"/>
<path d="M8405 3496 c-11 -13 -45 -52 -75 -87 -58 -67 -248 -259 -315 -319
-36 -32 -145 -123 -170 -142 -5 -4 -29 -23 -52 -42 -23 -18 -95 -70 -160 -114
-65 -44 -140 -102 -168 -129 -51 -49 -191 -165 -235 -194 l-25 -16 115 -75
c194 -127 412 -232 615 -298 55 -17 108 -34 118 -36 45 -10 64 -15 92 -19 17
-3 37 -8 45 -10 8 -2 35 -7 60 -10 24 -4 47 -8 50 -10 3 -1 39 -6 80 -10 41
-4 84 -9 94 -11 26 -5 274 -16 361 -17 78 0 295 12 327 18 12 3 44 7 72 10 28
2 60 7 71 9 11 2 47 7 80 11 33 4 69 9 80 11 11 2 40 6 65 9 25 3 56 8 70 11
27 5 68 11 128 19 50 7 331 54 362 60 39 8 361 66 395 70 17 3 64 10 105 16
89 14 114 17 159 18 34 1 33 2 -50 59 -106 73 -249 182 -411 314 -551 449
-671 528 -1078 710 -185 83 -421 163 -540 183 -14 2 -54 9 -90 15 -124 22
-153 21 -175 -4z"/>
<path d="M4906 1801 c-42 -47 -16 -111 45 -111 43 0 66 31 59 80 -6 47 -72 66
-104 31z"/>
<path d="M5818 1809 c-29 -17 -39 -44 -27 -76 12 -33 26 -43 59 -43 56 1 84
59 49 104 -21 27 -51 33 -81 15z"/>
<path d="M5382 1482 c-22 -3 -43 -31 -49 -65 -4 -21 39 -67 62 -67 27 0 55 20
65 46 18 47 -24 95 -78 86z"/>
</g>
</svg>
