<?xml version="1.0" encoding="UTF-8"?>
<svg id="Layer_1" xmlns="http://www.w3.org/2000/svg" viewBox="0 0 4000 3030.28"><defs><style>.cls-1{fill:#a88342;}</style></defs><g id="NEGATIVE_SPACE"><path class="cls-1" d="M3992.06,2690.99c-10.99,1.02-21.78,2.03-32.56,3.25-51.48,5.9-102.77,15.06-153.65,24.02-27.48,4.88-54.95,9.97-82.22,15.05-27.27,4.89-54.54,9.37-82.02,13.84-27.88,4.48-55.97,8.34-84.05,12.41-27.67,4.07-55.35,8.14-83.03,12.42-21.98,3.25-43.96,6.31-65.94,8.75-1.02,.2-2.24,.41-3.26,.41-25.85,3.05-51.89,5.29-77.94,6.72-26.25,1.42-52.3,1.63-77.33,1.22-55.97-.81-111.73-5.09-166.88-12.82-1.83-.2-3.46-.41-5.29-.61,0-.2-.2-.2-.2-.2-17.71-2.44-35.21-5.5-52.51-8.95-17.91-3.46-35.61-7.74-52.51-12.21-17.5-4.88-34.8-10.18-51.9-16.28-17.7-6.31-35.21-13.02-51.69-19.73-42.94-18.32-84.46-39.48-124.55-63.09-16.48-9.77-32.76-19.94-48.64-30.73-7.33-4.88-14.65-9.97-21.78-15.26-1.63-1.22-3.25-2.44-4.68-3.46,42.94-28.9,83.03-62.47,119.26-100.33h.41c1.01,0,2.03-.2,3.05-.61,128.21-82.62,237.5-181.73,327.65-292.44,1.22,.2,2.44,.2,3.66,.2,9.56,.61,19.13,1.42,28.69,2.64,15.26,1.83,30.32,3.87,45.38,6.72,15.06,2.64,29.92,6.11,44.77,9.77,18.52,4.88,37.04,10.18,55.16,16.08,18.93,6.31,37.65,13.23,56.37,20.35,36.42,14.45,72.24,30.73,107.86,47.42,24.43,11.6,48.85,23.2,72.65,36.02,16.69,9.36,33.17,18.72,49.25,29.3,16.28,10.58,32.16,21.77,47.83,33.17,32.15,23.61,63.49,48.44,94.63,73.47,15.87,12.62,31.75,25.03,47.62,37.85,15.26,12.01,30.32,24.42,45.38,36.63,15.06,12.62,30.32,25.03,45.79,37.04,15.06,12.01,30.32,23.4,45.59,35,8.55,6.31,16.89,12.62,24.83,18.31,.41,.41,.81,.81,1.43,1.02,14.04,10.38,28.29,20.35,42.73,29.92,4.07,2.65,8.35,5.29,12.62,7.74Z"/><path class="cls-1" d="M4000,2165.93c-4.48-1.02-8.96-2.04-13.43-2.85-8.14-1.62-16.28-2.85-24.62-4.07-15.26-2.03-30.53-3.66-45.99-5.09-33.37-2.85-66.96-4.88-100.53-6.11-20.96-.61-41.92-1.22-62.68-1.42h-13.02c-34.8-.41-69.6-.2-104.4,.61-35.41,.81-70.62,2.03-106.03,4.68-16.69,1.22-33.17,2.85-49.86,4.48-17.91,1.63-35.82,3.46-53.53,5.5-.41,.2-.61,.2-.81,.2-1.83,.2-3.67,.41-5.3,.61h-.81c0,.2-.2,.2-.2,.2-34.19,4.07-68.38,8.75-102.37,14.65-33.99,5.7-67.97,12.21-101.35,20.55-6.11,1.43-12.21,3.05-18.12,4.88-2.85,.81-5.5,1.63-8.34,2.44-1.83,.61-3.66,1.43-5.7,1.83-.41,0-.81,.2-1.02,.2-7.12-1.02-14.04-2.04-21.17-2.85-9.77-1.22-19.33-2.44-29.1-3.06h-2.64c4.48-5.7,8.95-11.4,13.23-17.1,9.16-6.71,18.52-12.62,28.09-18.31,16.07-8.95,32.76-17.3,49.45-25.24,16.89-7.93,33.98-15.26,51.29-22.59,1.22-.41,2.44-1.01,3.46-1.42,17.7-7.33,35.41-14.25,53.12-21.17,16.89-6.72,33.98-13.03,51.08-19.13,12.62-4.48,25.44-8.75,38.06-12.62,13.43-4.27,26.86-8.14,40.29-11.81,15.26-4.27,30.73-7.93,46.2-11.19,15.87-3.26,31.75-6.11,47.62-8.35,36.02-4.88,72.45-7.73,108.88-8.14,13.43,0,26.86,.41,40.29,1.22,13.84,.81,27.68,2.24,41.31,4.07,13.03,1.62,25.85,3.46,38.87,5.7,6.31,1.22,12.62,2.44,19.13,3.66,6.71,1.43,13.23,2.85,19.94,4.48,7.12,2.04,14.24,4.07,21.37,6.31,7.53,2.44,15.06,5.5,22.38,8.55,15.26,6.51,30.32,13.84,44.77,22.18,7.33,4.27,14.66,8.75,21.78,13.63,6.72,4.48,13.23,9.16,19.54,14.04,8.75,6.72,17.09,14.05,24.82,21.78,5.3,5.5,10.18,10.99,14.86,16.89,2.44,3.66,4.88,7.32,7.12,10.99,1.63,2.64,2.85,5.29,4.07,8.14Z"/><path class="cls-1" d="M871.22,2199.91c-1.01,.2-1.83,.2-2.85,.2-9.56,.61-19.33,1.63-28.9,2.85-7.12,1.02-14.24,2.03-21.17,3.05-.41-.2-.81-.2-1.02-.2-2.04-.61-3.87-1.22-5.9-1.83-2.64-.81-5.5-1.83-8.34-2.65-5.9-1.63-12.01-3.25-17.91-4.68-33.58-8.34-67.36-15.06-101.35-20.76-34.19-5.7-68.38-10.58-102.57-14.65h-.81c-1.62-.2-3.46-.41-5.49-.61,0,0-.41-.2-.61-.2-17.91-2.04-35.82-3.87-53.53-5.7-16.69-1.62-33.37-3.05-50.06-4.48-35.21-2.64-70.62-3.66-105.82-4.48-35-1.02-69.8-1.02-104.61-.61h-12.82c-20.76,.2-41.92,.61-62.89,1.43-33.58,1.02-66.95,3.25-100.53,6.11-15.26,1.22-30.73,3.05-45.79,5.09-8.34,1.22-16.69,2.44-24.83,4.07C8.95,2162.68,4.48,2163.69,0,2164.71c1.22-2.85,2.64-5.5,4.07-8.14,2.24-3.87,4.68-7.53,7.32-10.99,4.48-5.9,9.36-11.6,14.66-16.89,7.93-7.73,16.28-15.06,24.83-21.98,6.51-4.88,13.02-9.56,19.74-14.05,6.92-4.68,14.24-9.16,21.77-13.43,14.25-8.55,29.31-15.67,44.57-22.38,7.53-2.85,14.86-5.9,22.38-8.35,7.12-2.24,14.25-4.27,21.57-6.31,6.51-1.62,13.23-3.05,19.94-4.48,6.31-1.22,12.62-2.44,19.13-3.66,12.82-2.24,25.85-4.07,38.67-5.9,13.84-1.63,27.47-3.05,41.31-3.87,13.43-.81,27.06-1.22,40.5-1.22,36.42,.41,72.65,3.05,108.67,8.14,16.08,2.24,31.95,5.09,47.62,8.35,15.67,3.05,30.93,6.92,46.2,10.99,13.63,3.66,27.07,7.73,40.29,11.8,12.82,4.07,25.44,8.35,38.26,12.82,17.1,6.11,33.99,12.41,50.88,18.93,17.91,6.92,35.61,14.04,53.12,21.37,1.02,.41,2.24,.81,3.66,1.43,17.1,7.12,34.19,14.65,51.08,22.59,16.89,7.94,33.38,16.08,49.45,25.24,9.77,5.7,19.13,11.6,28.09,18.32,4.48,5.7,8.95,11.39,13.43,16.89Z"/><path class="cls-1" d="M1330.75,2604.29c-1.63,1.22-3.25,2.44-4.88,3.66-7.12,5.09-14.45,10.38-21.78,15.26-15.87,10.79-31.95,20.96-48.43,30.73-40.09,23.4-81.81,44.57-124.75,62.89-16.48,6.92-33.98,13.63-51.69,19.74-17.1,6.31-34.4,11.4-51.9,16.28-16.69,4.68-34.4,8.95-52.3,12.41-17.5,3.25-35,6.31-52.51,8.96h-.41c-1.62,.2-3.46,.61-5.09,.81-55.35,7.74-111.12,12.01-167.08,12.82-25.03,.2-51.08,0-77.13-1.43-26.04-1.22-52.09-3.66-78.14-6.51-1.02-.2-2.04-.2-3.06-.41-22.18-2.44-44.16-5.69-66.14-8.95-27.67-4.07-55.35-8.34-83.03-12.21-27.88-4.07-55.97-7.93-84.05-12.41-27.27-4.48-54.54-8.95-81.81-14.04-27.47-4.88-54.74-9.97-82.21-14.86-51.09-9.16-102.16-18.12-153.65-24.02-10.79-1.22-21.78-2.44-32.56-3.46,4.27-2.44,8.34-4.88,12.42-7.53,14.65-9.56,28.9-19.54,42.94-29.91,.41-.41,.81-.62,1.43-1.02,7.73-5.7,16.28-12.01,24.83-18.52,15.26-11.39,30.53-22.99,45.59-34.8,15.26-12.21,30.53-24.62,45.79-37.04,15.06-12.41,30.12-24.62,45.18-36.83,15.87-12.62,31.75-25.24,47.62-37.86,31.34-24.83,62.48-49.66,94.63-73.27,15.67-11.39,31.75-22.59,48.03-33.37,15.87-10.38,32.35-19.94,49.04-29.1,23.81-12.82,48.23-24.62,72.86-36.02,35.41-16.69,71.23-32.97,107.86-47.62,18.52-7.12,37.24-13.84,56.16-20.15,18.32-6.11,36.84-11.4,55.36-16.08,14.86-3.66,29.71-7.12,44.77-9.77,14.86-2.85,30.12-4.88,45.18-6.92,9.56-1.02,19.13-1.83,28.69-2.44,1.22,0,2.44-.2,3.67-.2,90.15,110.5,199.44,209.62,327.85,292.45,1.02,.4,2.04,.61,3.06,.61,.2,0,.2-.21,.41-.21,36.02,38.06,76.11,71.44,119.25,100.33Z"/><path class="cls-1" d="M2869.9,153.41c-48.03-36.63-98.9-69.4-151-99.31-2.44-1.63-5.7-1.22-7.32,1.43-1.43,2.44-.41,5.5,1.83,6.71,3.67,2.04,7.12,4.07,10.58,6.11,.2,.41,.61,.81,1.02,1.22,2.24,1.83,4.88,3.46,7.12,5.5,3.05,2.65,6.11,5.09,9.36,7.74,3.46,2.64,6.92,5.49,10.38,8.34,9.36,7.93,18.52,15.67,27.67,23.61,32.56,28.7,63.7,58.61,93.01,90.36,6.11,6.51,12.21,13.43,18.11,20.15,17.5,19.73,34.4,40.09,50.47,61.05,17.1,22.18,33.58,44.98,49.25,68.17,29.3,43.76,55.97,89.55,79.57,136.55,23.61,47.42,44.16,96.26,61.26,145.31,8.96,25.44,16.89,51.08,24.01,76.93,7.53,26.66,13.84,53.52,19.34,80.39,0,.2,0,.41,.2,.61v.2c2.85,14.45,5.49,28.9,7.93,43.35,0,0,0,.2,.2,.81,0,.61,.2,1.43,.41,2.64,.2,.61,.41,1.43,.41,2.24,1.43,5.9,3.25,16.28,5.29,31.14v.2s0,.2,.2,.2v.41c2.85,21.57,6.31,52.09,8.34,89.54,.81,20.35,1.43,42.74,1.43,67.16-.2,4.27-.2,8.55-.2,12.82-.81,60.65-6.11,131.68-20.15,209.41-1.22,6.51-2.44,13.23-3.87,19.74-.61,2.85-1.02,5.9-1.63,8.75-.61,3.46-1.43,6.92-2.04,10.38-1.62,7.73-3.25,15.67-5.09,23.61-2.64,11.8-5.7,23.4-8.95,35-2.24,8.34-4.48,16.69-6.92,25.03-5.5,19.54-11.8,38.87-18.31,57.6-18.11,52.3-39.48,103.18-63.7,151.21-12.82,25.64-26.66,50.88-41.31,75.5-12.62,21.37-26.05,42.54-39.28,61.87-18.73,27.88-38.67,54.74-59.63,81-11.19,13.84-22.79,27.68-34.6,41.11l-1.02,1.02c-6.51,7.32-13.02,14.65-19.54,21.77-3.66,3.87-7.12,7.53-10.58,11.4-1.83,1.83-3.66,3.67-5.5,5.5-2.04,2.24-4.68,4.68-5.9,7.53l27.48,3.05c20.15,1.83,40.29,3.05,60.44,2.85,62.89-.41,121.7-25.24,175.22-56.58,18.72-9.37,35.61-25.64,56.57-28.9,16.89,.61,15.67,20.15,9.16,30.93-23.81,48.23-60.65,88.94-88.12,135.13-39.89,62.88-74.89,128.82-107.45,195.77-44.36,92.6-84.05,189.06-145.51,271.69,132.28-97.48,350.44-345.15,443.04-482.32,.2-.2,.4-.61,.61-.81,302.21-594.25,167.9-1372.88-412.32-1809.82Z"/><path class="cls-1" d="M3020.5,2054.41c38.26-74.08,89.34-140.01,133.5-210.23-168.71,109.29-235.46,73.06-417.4,60.04-163.42-9.57-288.58,35.41-420.46,130.04-44.36,30.73-85.68,65.53-124.95,102.37-11.81,10.99-23,22.79-33.17,35.21,2.24,4.07,4.48,7.93,6.72,12,30.73,58.41,46.6,123.94,52.51,189.47,8.14,140.02-62.48,282.68-187.84,348.41,110.1,20.96,224.47,18.11,333.76-7.12,213.89-45.38,414.35-175.83,515.7-373.24,48.84-94.84,89.14-193.95,141.64-286.95Z"/><path class="cls-1" d="M2220.5,1758.5c-50.27,72.86-88.52,154.06-111.32,239.53-5.9,25.85-13.23,51.9-14.86,78.35,1.43,2.24,3.05,4.48,4.68,6.51,18.31,25.85,36.84,51.9,53.12,79.17,14.04-18.32,40.91-44.37,46.4-50.67,77.13-75.1,165.04-141.03,263.34-186.01,68.58-30.12,143.07-42.73,217.76-44.57,49.04-95.04,48.23-209.21,6.72-307.1-28.49-70.21-65.53-138.38-80.79-213.28-4.48,19.13-9.77,38.06-17.71,55.97-38.87,70.62-109.89,116-172.58,163.42-72.86,50.06-142.86,106.44-194.76,178.68Z"/><path class="cls-1" d="M1849.09,1842.55c24.42,50.88,46.6,103.38,59.63,158.34,1.63,8.14,7.53,34.19,10.18,56.78,15.26-20.35,30.12-40.91,40.91-64.1,2.44-4.88,4.68-9.77,7.12-14.65,1.02-3.26,2.24-6.51,3.25-9.56,2.65-7.94,5.29-15.87,7.33-23.81,2.03-7.53,4.07-15.06,5.29-22.79,.81-4.88,1.63-9.77,2.24-13.84,0-.41,0-.81,.21-1.22,.2-2.24,.4-4.27,.81-6.51,.41-3.66,.61-7.33,1.43-10.18,0-.2,.2-.41,.2-.61v-.2c.61-1.83,1.22-3.46,2.44-5.09,1.43-1.62,3.06-2.64,5.09-3.25,.81-.41,1.63-.61,2.65-.81,5.9-1.22,12.21,2.85,13.23,8.95,.41,2.24,.81,4.68,1.02,6.92,.61,3.46,1.22,6.71,1.83,10.18,1.83,10.99,4.27,21.78,6.92,32.56,2.85,10.58,6.1,20.96,9.16,31.34,.4,1.43,.81,3.06,1.22,4.48,2.85,6.51,5.9,13.02,8.96,19.54,10.79,22.99,25.84,43.55,41.1,63.9,2.44-22.59,8.55-48.64,9.98-56.78,13.23-54.95,35.21-107.45,59.83-158.33,27.48-57.79,62.28-112.34,106.84-158.54,22.59-23.81,46.81-45.79,71.84-66.95-1.22-3.46-1.02-8.14-2.04-11.4-3.66-23.41-10.18-46.2-17.7-68.59-16.89-46.81-39.48-91.58-64.11-134.72-32.97-55.97-74.48-106.03-110.5-159.96-33.79-51.08-68.78-103.79-95.45-159.15-18.12-37.04-30.73-76.32-40.1-116.4-9.36,39.48-21.98,78.35-39.89,114.98-26.66,55.56-61.66,108.26-95.45,159.35-35.82,53.93-77.54,103.79-110.3,159.96-24.83,42.94-47.42,87.71-64.1,134.52-7.74,22.38-14.05,45.18-17.91,68.78-1.02,3.06-.81,7.93-2.04,11.4,25.04,21.17,49.25,43.14,71.84,66.96,44.57,46.2,79.37,100.74,107.05,158.53Z"/><path class="cls-1" d="M2128.31,2618.94c51.29-67.36,74.9-154.06,70.01-238.31-3.66-41.72-12.82-83.03-25.03-122.92-19.74-59.02-54.54-110.91-90.56-161.18-25.44-36.02-53.11-71.23-69.19-112.75-3.25-8.14-6.11-16.28-8.34-24.42-1.63-4.68-3.46-9.16-4.89-13.64-.2-.41-.2-.81-.41-1.22-.2,.81-.4,1.62-.61,2.24-1.43,5.5-3.26,10.79-5.29,15.87-.81,2.65-1.83,5.09-2.85,7.53-1.43,4.07-2.85,8.35-4.68,12.21-15.87,41.72-43.55,76.93-69.19,112.95-35.82,50.27-70.82,102.16-90.36,161.18-12.21,39.89-21.36,81.2-25.03,122.92-4.88,84.05,18.52,170.95,70.01,238.31,19.94,26.66,44.36,49.86,71.02,69.4,13.84,9.77,27.07,19.95,41.52,28.29,1.62,.2,2.85,.81,3.87,1.63,1.83,.61,3.66,1.01,5.5,1.42,1.42,.2,2.85,.41,4.07,.61h2.85c2.65-.2,5.29-.61,7.94-1.02,1.63-.2,3.05-.61,4.48-1.22,1.83-.61,3.66-1.43,5.5-2.24,.2-.2,.61-.2,.81-.2,13.02-7.93,25.24-17.1,37.65-26.05,26.86-19.54,51.08-42.73,71.23-69.4Z"/><path class="cls-1" d="M1782.75,2371.89c5.9-65.53,21.98-130.86,52.71-189.27,2.03-4.07,4.27-8.14,6.71-12.01-10.37-12.41-21.36-24.22-33.17-35.21-39.28-36.84-80.79-71.64-124.95-102.37-131.88-94.63-257.04-139.61-420.66-130.04-181.94,13.02-248.69,49.04-417.4-60.04,44.17,70.22,95.45,136.15,133.71,210.02,52.51,93.01,92.6,192.32,141.44,287.16,101.35,197.4,301.81,327.85,515.9,373.04,108.88,25.44,223.25,28.29,333.14,7.32-.81-.61-1.83-1.02-2.64-1.83-123.33-66.54-192.93-207.99-184.79-346.78Z"/><path class="cls-1" d="M1320.58,1879.39c74.69,1.83,149.17,14.66,217.76,44.78,98.3,44.98,186.01,110.71,263.14,186.01,5.5,6.31,32.36,32.36,46.41,50.47,16.48-27.27,34.8-53.12,53.11-78.96,1.63-2.24,3.25-4.27,4.88-6.51-1.63-26.66-9.16-52.51-14.86-78.35-22.79-85.47-61.26-166.88-111.52-239.53-51.9-72.24-121.9-128.62-194.56-178.68-62.89-47.62-133.71-93.01-172.58-163.62-7.93-17.91-13.43-36.84-17.7-55.77-15.47,74.9-52.3,143.07-81,213.08-41.32,98.09-42.13,212.26,6.92,307.09Z"/><path class="cls-1" d="M908.67,1977.68c-27.68-46.4-64.51-86.9-88.33-135.33-6.31-10.79-7.53-30.33,9.16-30.93,21.17,3.25,38.05,19.54,56.78,29.1,53.32,31.34,112.33,56.17,175.02,56.58,20.35,.2,40.5-1.02,60.44-3.05l27.68-2.85c-1.22-3.05-3.87-5.29-6.11-7.53-1.83-1.83-3.46-3.66-5.29-5.69-3.66-3.67-7.12-7.33-10.58-11.19-6.72-7.12-13.23-14.45-19.74-21.78-.2-.41-.41-.61-.61-.81l-.2-.2c-11.81-13.63-23.4-27.27-34.6-41.31-21.17-26.04-41.11-53.11-59.83-80.79-13.03-19.54-26.46-40.5-39.28-61.86-14.65-24.83-28.29-50.07-41.31-75.71-24.01-48.03-45.58-98.9-63.7-151-13.23-38.06-24.62-77.54-34.19-117.83-1.63-7.73-3.46-15.67-5.09-23.61l-3.66-18.93c-.41-2.85-1.02-5.7-1.43-8.55-.2-1.62-.41-3.25-.81-5.09-.2-1.62-.41-3.46-1.02-5.09-.41-1.02-.81-2.03-1.63-2.85v-.2c-2.64-14.45-4.88-28.69-6.92-42.74v-.61c0-.81-.2-1.83-.41-2.64v-.2c-2.65-18.93-4.68-37.04-6.51-54.95v-2.85c-1.02-9.77-2.03-19.33-2.44-28.49-.2-1.63-.41-3.46-.41-5.09-4.07-57.8-3.46-109.08-1.43-151v-.41c.81-12.01,1.63-23.41,2.44-33.79,.61-7.73,1.43-15.06,2.04-21.98,1.43-12.21,2.64-22.79,3.87-31.95q.2-.2,.2-.41l.2-.2q0-.2,.2-.41c.41-1.02,.81-2.24,1.02-3.46h.2c3.46-25.64,7.74-51.29,13.02-76.72v-.41c0-.2,0-.41,.2-.41,5.5-26.86,11.81-53.72,19.13-80.39,7.12-26.05,15.26-51.69,24.01-76.93,17.1-49.04,37.65-97.89,61.46-145.3,23.61-47.22,50.06-92.8,79.57-136.76,15.67-22.99,31.95-45.79,49.05-67.97,16.28-20.96,33.17-41.31,50.47-61.26,6.1-6.72,12-13.43,18.11-19.94,29.3-31.95,60.65-61.87,93.01-90.36,9.16-7.93,18.52-15.87,27.88-23.61,3.46-2.85,6.92-5.7,10.18-8.55,3.26-2.44,6.51-4.88,9.56-7.74,2.24-1.83,4.68-3.66,7.12-5.29,.41-.41,.61-.81,1.02-1.22,3.46-2.04,6.92-4.07,10.38-6.11,2.24-1.22,3.25-4.28,1.83-6.72-1.42-2.65-4.68-3.05-7.12-1.43-52.3,29.92-103.18,62.68-151.01,99.11-615.01,463.19-729.17,1310.61-353.09,1914.83,82.83,108.27,274.54,297.33,384.23,378.33-61.46-82.63-101.14-179.29-145.3-271.89-32.56-66.95-67.77-132.68-107.45-195.57Z"/></g><g id="DOTS"><circle class="cls-1" cx="1999.81" cy="2989.57" r="24.3" transform="translate(-1527.49 3693.1) rotate(-67.5)"/><path class="cls-1" d="M1999.81,65.01c13.42,0,24.3-10.88,24.3-24.3s-10.88-24.3-24.3-24.3-24.3,10.88-24.3,24.3,10.88,24.3,24.3,24.3Z"/><path class="cls-1" d="M1999.81,749.18c13.42,0,24.3-10.88,24.3-24.3s-10.88-24.3-24.3-24.3-24.3,10.88-24.3,24.3,10.88,24.3,24.3,24.3Z"/><path class="cls-1" d="M1832.86,2840.56c-13.42,0-24.3,10.88-24.3,24.3s10.88,24.3,24.3,24.3,24.3-10.88,24.3-24.3-10.88-24.3-24.3-24.3Z"/><circle class="cls-1" cx="2166.73" cy="2864.87" r="24.3" transform="translate(-430.92 384.07) rotate(-9.22)"/><path class="cls-1" d="M2142.42,392.45c-36.15,8.46-73.12,17.18-99.4,43.25-26.07,26.28-34.83,63.25-43.21,99.4-8.46-36.15-17.18-73.12-43.2-99.4-26.28-26.11-63.29-34.83-99.44-43.25,36.15-8.42,73.12-17.14,99.44-43.2,26.07-26.28,34.79-63.25,43.2-99.4,8.42,36.15,17.14,73.12,43.21,99.4,26.28,26.11,63.25,34.83,99.4,43.2Z"/></g></svg>