<svg height="100" viewBox="0 0 601 217" width="150" xmlns="http://www.w3.org/2000/svg"><g fill="#009b48"><path d="m.86 12.2c-.071-2.991 1.043-5.888 3.1-8.06 2.224-2.256 5.306-3.453 8.47-3.29 3.18-.153 6.276 1.042 8.53 3.29 2.1 2.15 3.247 5.055 3.18 8.06.071 2.988-1.077 5.876-3.18 8-2.272 2.212-5.363 3.379-8.53 3.22-3.137.156-6.196-1.012-8.43-3.22-2.079-2.136-3.211-5.02-3.14-8zm15.68 196.8h-8.54c-2.327-.006-4.21-1.893-4.21-4.22v-144.27c0-2.325 1.885-4.21 4.21-4.21h8.51c1.117-.003 2.19.44 2.98 1.23s1.233 1.862 1.23 2.98v144.24c.011 1.118-.424 2.195-1.208 2.992s-1.853 1.25-2.972 1.258zm64.13-82.28v77.82c.003 1.117-.44 2.19-1.23 2.98s-1.862 1.233-2.98 1.23h-9.07c-1.117.003-2.19-.44-2.98-1.23s-1.233-1.862-1.23-2.98v-197c-.003-1.117.44-2.19 1.23-2.98s1.862-1.233 2.98-1.23h62.53c21.913 0 39.03 5.307 51.35 15.92s18.483 25.46 18.49 44.54c.188 12.577-3.89 24.848-11.57 34.81-6.727 8.765-15.811 15.431-26.19 19.22-1.173.43-2.094 1.358-2.517 2.534-.423 1.175-.303 2.478.327 3.556l46.19 78.49c.763 1.305.77 2.918.018 4.229s-2.147 2.12-3.658 2.121h-9.87c-1.498-.001-2.884-.797-3.64-2.09l-47.24-81.45c-.751-1.3-2.139-2.101-3.64-2.1h-27.97c-1.118 0-2.191-.445-2.98-1.237-.79-.792-1.232-1.865-1.23-2.983v-6.24c-.003-1.118.44-2.192 1.23-2.983.79-.792 1.862-1.237 2.98-1.237h23.91c14.567 0 26.277-4.143 35.13-12.43s13.273-19.027 13.26-32.22c0-14.507-4.61-25.767-13.83-33.78s-22.153-12.013-38.8-12h-44.78c-2.327 0-4.214 1.883-4.22 4.21zm158.14-7.98c-.642 4.768-.829 9.586-.56 14.39v3.24c0 17.333 4.96 31.75 14.88 43.25s22.407 17.26 37.46 17.28c9.033 0 17.007-1.643 23.92-4.93 6.275-3.092 11.842-7.45 16.35-12.8 1.458-1.653 3.944-1.901 5.7-.57l4.05 3.09c.907.687 1.499 1.711 1.642 2.84s-.175 2.268-.882 3.16c-12.293 15.647-29.453 23.473-51.48 23.48-12.404.158-24.603-3.168-35.21-9.6-10.52-6.425-19.006-15.695-24.48-26.74-5.827-11.433-8.74-24.25-8.74-38.45v-6.06c0-14.667 2.843-27.883 8.53-39.65 5.246-11.241 13.47-20.831 23.78-27.73 9.74-6.595 21.237-10.11 33-10.09 18.533 0 33.233 6.333 44.1 19s16.297 29.95 16.29 51.85v5.24c.003 1.118-.44 2.192-1.23 2.983-.79.792-1.862 1.237-2.98 1.237h-75c-1.121-.003-2.195-.451-2.985-1.247-.79-.795-1.231-1.872-1.225-2.993v-6c.011-2.317 1.893-4.19 4.21-4.19h62.4v-1.83c-.467-14.667-4.65-26.613-12.55-35.84s-18.25-13.833-31.05-13.82c-12.222-.2-23.931 4.906-32.1 14-8.7 9.333-13.99 21.847-15.87 37.54"/><path d="m529.37 20.79v30.66c-.003 1.118.44 2.192 1.23 2.983.79.792 1.862 1.237 2.98 1.237h23.18c2.325 0 4.21 1.885 4.21 4.21v5.4c0 2.325-1.885 4.21-4.21 4.21h-23.18c-1.118 0-2.191.445-2.98 1.237-.79.792-1.232 1.865-1.23 2.983v97.63c0 8.473 1.527 14.783 4.58 18.93s8.157 6.217 15.31 6.21c3.069-.078 6.131-.339 9.17-.78 1.17-.149 2.35.198 3.252.958.903.76 1.446 1.863 1.498 3.042l.3 5.79c.123 2.005-1.201 3.812-3.15 4.3-4.844 1.028-9.789 1.501-14.74 1.41-11.573 0-19.993-3.363-25.26-10.09s-7.9-16.627-7.9-29.7v-150.62c.006-2.327 1.893-4.21 4.22-4.21h8.5c2.327 0 4.214 1.883 4.22 4.21zm-107.29 47.44c14.18 0 24.42 1.83 35.84 10.63 3.22 2.79 5.61 5 7.38 6.85 1.497 1.546 3.922 1.706 5.61.37l3.64-2.86c1.776-1.41 2.121-3.971.78-5.8l-1.66-2.24c-3.575-4.134-7.63-7.827-12.08-11-8.14-6-24.15-11.43-42.27-10.24s-46.43 11-47.26 41.22c-.79 28.49 30.55 36.89 37 38.73 18.51 5.25 26.91 5.78 35.45 9.58 8.37 3.74 21.4 8.93 21.53 27.84s-24.42 25.6-32.82 25.86-26.79 1.84-43.85-15l-2.24-2.49v-.05c-1.475-1.481-3.815-1.652-5.49-.4l-4 3c-.916.681-1.515 1.705-1.66 2.836-.145 1.132.176 2.274.89 3.164l1.49 1.86s7.87 9.59 18.64 14.71 31.64 9.84 52 3.8 33.22-18.64 33.74-39.65-16.8-32.69-26.26-36.62c-11.46-4.78-25.47-7.36-45.42-13.13s-23.37-18.78-21.93-28.1 10.76-22.87 32.95-22.87z"/><text font-family="Roboto-Regular, Roboto" font-size="40"><tspan x="571.21" y="215.08">®</tspan></text></g></svg>