<?xml version="1.0" encoding="UTF-8"?>
<svg width="586px" height="140px" viewBox="0 0 586 140" version="1.1" xmlns="http://www.w3.org/2000/svg" xmlns:xlink="http://www.w3.org/1999/xlink">
    <title>jung-platform-logo-horizontal</title>
    <g id="jung-platform-logo-horizontal" stroke="none" stroke-width="1" fill="none" fill-rule="evenodd">
        <g id="Group" fill-rule="nonzero">
            <g>
                <g id="Jung-Logo" transform="translate(0.000000, 6.000000)" fill="#000000">
                    <path d="M29.3223227,4.84332585 L18.2031545,4.84332585 L18.2031545,44.3264575 C18.2031545,53.130742 16.0510574,56.1260141 9.77410758,56.1260141 C7.26332765,56.1260141 5.29057199,55.672185 1.70374352,54.2199319 L0,63.1149822 C4.21452345,65.2933619 7.44266908,65.9287226 12.9125825,65.9287226 C18.4721666,65.9287226 23.8524093,63.3872797 26.45286,59.4843494 C28.5152863,56.3983115 29.232652,52.9492104 29.232652,46.6863688 L29.232652,4.84332585 L29.3223227,4.84332585 Z M75.6820807,23.8133822 L65.2802782,23.8133822 L65.2802782,52.7676787 C62.0521325,56.1260141 59.6310233,57.3059697 56.5822191,57.3059697 C51.2019764,57.3059697 48.9602086,54.4922293 48.9602086,48.0478561 L48.9602086,23.8133822 L38.5584061,23.8133822 L38.5584061,49.1370459 C38.5584061,54.4922293 39.0067596,57.3967356 40.3518203,59.8474127 C42.4142467,63.4780455 46.8081115,65.9287226 51.9193421,66.2010201 C57.4789262,66.4733175 61.4244376,64.748767 66.1769853,60.1197101 C67.0736924,63.6595771 69.2257895,65.4748935 73.1713008,65.9287226 C75.3233979,66.2010201 76.7581293,66.1102543 79.7172628,65.5656593 L81.0623234,59.0305203 C78.8205556,59.1212861 77.6548364,58.7582228 76.8478,57.9413305 C75.8614222,56.7613748 75.6820807,55.7629508 75.6820807,50.6800649 L75.6820807,23.8133822 L75.6820807,23.8133822 Z M84.6491519,25.3564011 C86.8909197,28.0793757 87.3392733,30.4392871 87.3392733,40.060464 L87.3392733,64.8395328 L97.7410758,64.8395328 L97.7410758,36.7021286 C100.969221,32.98073 103.838684,31.2561794 107.06683,31.2561794 C109.57761,31.2561794 111.460695,32.0730718 112.895426,33.7068566 C114.150816,35.2498755 114.59917,37.1559577 114.59917,41.058888 L114.59917,64.8395328 L125.000972,64.8395328 L125.000972,37.519021 C125.000972,28.3516732 119.441388,22.5426607 110.833,22.5426607 C105.81144,22.5426607 101.417575,24.7210404 97.2030515,29.440863 C96.754698,25.8102302 95.6786494,23.6318506 93.8852352,22.5426607 L84.6491519,25.3564011 L84.6491519,25.3564011 Z M172.705791,23.7226164 L157.46177,23.7226164 C153.6956,22.4518949 152.44021,22.2703633 148.67404,22.2703633 C139.617298,22.2703633 132.353971,29.2593314 132.353971,37.8820843 C132.353971,44.1449259 135.761458,49.2278118 141.769395,51.7692547 C138.720591,53.4938053 137.644543,54.8552926 137.106518,57.2152039 C136.568494,59.665881 137.37553,61.4811974 139.527628,63.0242164 C133.51969,65.0210644 130.022532,69.3778238 130.022532,74.5514755 C130.022532,82.8111651 138.272238,88.5294118 150.019101,88.5294118 C161.765964,88.5294118 170.733035,81.8127411 170.733035,73.0992224 C170.733035,67.0179125 167.59456,63.0242164 161.676293,61.2996658 C160.779586,61.0273683 156.654733,60.0289443 150.826137,58.667457 C146.790955,57.669033 145.535565,57.0336723 145.625236,55.672185 C145.714907,54.8552926 146.16326,54.3106977 147.328979,53.4030395 C149.481077,53.5845711 149.212064,53.5845711 151.453832,53.5845711 C154.502636,53.5845711 157.820453,52.6769129 160.331233,51.0431282 C164.904439,48.2293877 167.235877,43.9633942 167.235877,38.3359134 C167.235877,35.6129388 166.2495,32.7084325 164.276744,30.0762238 L172.705791,30.4392871 L172.705791,23.7226164 L172.705791,23.7226164 Z M149.92943,28.5332048 C154.681978,28.5332048 157.820453,32.5269009 157.820453,38.8805083 C157.820453,43.6910968 154.95099,46.7771346 150.377784,46.7771346 C145.804577,46.7771346 142.39709,42.5111411 142.39709,36.6113628 C142.39709,31.982306 145.625236,28.5332048 149.92943,28.5332048 L149.92943,28.5332048 Z M151.543503,67.6532732 C158.71716,69.287058 160.689915,70.7393111 160.689915,74.3699439 C160.689915,78.6359374 156.654733,81.6312095 150.557125,81.6312095 C144.100834,81.6312095 139.617298,78.3636399 139.617298,73.6438173 C139.617298,70.8300769 141.410712,68.3793998 145.356224,66.2917859 L151.543503,67.6532732 L151.543503,67.6532732 Z M181.941874,64.9302986 L187.591129,64.9302986 L187.591129,39.515869 C190.19158,39.6066349 193.419725,39.6974007 194.764786,39.6974007 C200.32437,39.6974007 204.807906,38.7897425 207.85671,37.1559577 C213.326623,34.3422173 216.913452,28.1701416 216.913452,22.1795974 C216.913452,16.5521166 215.299379,12.3768889 211.71255,9.2000852 C208.036051,5.93251569 202.924821,4.48026257 194.764786,4.48026257 C192.881701,4.48026257 188.577507,4.66179421 185.349361,4.93409167 C184.542325,5.02485749 183.466276,5.11562331 181.941874,5.20638913 L181.941874,64.9302986 L181.941874,64.9302986 Z M187.591129,9.47238266 C190.998616,9.2000852 192.971372,9.10931938 194.675115,9.10931938 C205.525271,9.10931938 211.174526,13.4660787 211.174526,21.8165342 C211.174526,30.1669896 205.166589,34.977578 194.854457,34.977578 C192.433347,34.977578 190.370921,34.977578 187.591129,34.7960464 L187.591129,9.47238266 L187.591129,9.47238266 Z M225.611511,0.305034855 L225.611511,64.9302986 L230.812412,64.9302986 L230.812412,0.305034855 L225.611511,0.305034855 L225.611511,0.305034855 Z M241.572897,32.3453693 C245.518409,30.0762238 249.374249,28.8055023 253.409431,28.5332048 C256.099553,28.3516732 258.610333,29.0777998 260.134735,30.6208187 C261.748808,32.1638376 262.286832,33.8883882 262.197161,38.0636159 L262.197161,40.1512298 C256.816918,40.6958247 254.844163,40.9681222 252.781736,41.4219513 C244.35269,43.3280335 239.958825,47.594027 239.600142,54.129166 C239.241459,60.8458367 243.904336,65.9287226 250.539969,65.9287226 C254.933834,65.9287226 259.058686,64.3857037 262.735185,61.2996658 C263.542222,64.3857037 265.694319,65.8379568 269.370818,65.8379568 C270.536537,65.8379568 270.984891,65.747191 272.419622,65.4748935 L273.047317,61.8442607 C272.419622,61.8442607 271.522915,61.9350265 271.253903,61.9350265 C269.460489,61.9350265 268.38444,61.3904316 267.936087,60.1197101 C267.487733,59.1212861 267.398062,58.0320963 267.398062,53.9476344 L267.398062,38.517445 C267.398062,33.4345591 266.860038,30.5300529 265.335636,28.6239707 C263.183539,25.6286986 259.417369,24.0856797 254.575151,24.0856797 C250.539969,24.0856797 246.235774,25.3564011 241.662568,27.8978441 L241.662568,32.3453693 L241.572897,32.3453693 Z M262.197161,57.8505647 C258.430991,60.6643051 255.74087,61.6627291 252.333383,61.6627291 C247.670506,61.6627291 244.44236,58.4859254 244.711372,53.9476344 C245.159726,47.6847928 249.374249,45.052584 262.197161,43.5095651 L262.197161,57.8505647 L262.197161,57.8505647 Z M305.149432,24.902572 L286.856607,24.902572 L287.394631,13.3753129 L284.166486,13.3753129 L283.807803,16.1890533 C283.269778,21.1811734 282.821425,22.905724 281.924718,23.8133822 C280.848669,24.8118062 278.786243,25.3564011 275.468427,25.447167 L273.136988,25.5379328 L273.136988,28.8962681 L281.655706,28.8962681 L281.655706,51.8600205 C281.655706,57.3059697 281.835047,58.667457 282.552413,60.5735392 C283.718132,63.5688113 287.125619,65.5656593 290.98146,65.5656593 C295.106312,65.5656593 297.617092,65.0210644 301.024579,63.4780455 L300.217543,59.665881 C297.886104,60.6643051 296.630715,60.9366025 294.478617,61.1181342 C291.878167,61.2996658 289.905411,60.9366025 288.650021,59.9381785 C287.125619,58.7582228 286.766936,56.9429065 286.766936,51.2246598 L286.766936,28.9870339 L305.059761,28.9870339 L305.059761,24.902572 L305.149432,24.902572 Z M323.352587,24.902572 L312.323089,24.902572 L312.323089,18.367433 C312.323089,12.830718 313.040455,10.0169776 315.01321,7.74783208 C316.716954,5.84174987 319.407075,4.66179421 322.904233,4.48026257 C324.338964,4.38949675 325.235672,4.38949675 326.849744,4.66179421 L327.477439,0.395800675 C325.684025,0.0327373955 324.607977,-0.0580284244 322.904233,0.0327373955 C318.241356,0.305034855 314.295845,1.93881961 311.516053,4.84332585 C308.467248,8.02012954 307.211858,12.0138256 307.211858,18.2766672 L307.211858,24.902572 L298.693141,24.902572 L298.693141,28.8962681 L307.211858,28.8962681 L307.211858,64.8395328 L312.41276,64.8395328 L312.41276,28.9870339 L323.352587,28.9870339 L323.352587,24.902572 L323.352587,24.902572 Z M344.963228,23.904148 C333.754389,23.904148 325.235672,32.98073 325.235672,44.9618182 C325.235672,49.8631725 326.760074,54.9460584 329.450195,58.4859254 C333.037023,63.4780455 338.417266,65.9287226 345.590923,65.9287226 C356.889433,65.9287226 364.780455,57.0336723 364.780455,44.3264575 C364.780455,32.6176667 356.351409,23.904148 344.963228,23.904148 L344.963228,23.904148 Z M344.335533,28.3516732 C353.302604,28.3516732 359.400213,35.4314071 359.400213,45.597179 C359.400213,55.2183559 353.750958,61.6627291 345.321911,61.6627291 C336.982535,61.6627291 330.615914,54.129166 330.615914,44.3264575 C330.615914,34.8868122 336.175498,28.3516732 344.335533,28.3516732 L344.335533,28.3516732 Z M396.88257,25.447167 C393.923437,24.1764455 392.578376,23.8133822 390.51595,23.8133822 C386.839451,23.8133822 384.149329,25.9009961 379.486452,32.98073 C379.307111,28.2609074 378.500074,25.9009961 376.078965,23.8133822 L371.864442,25.9009961 C374.106209,27.9886099 374.644234,30.7115845 374.644234,39.0620399 L374.644234,64.8395328 L379.755464,64.8395328 L379.755464,37.2467235 C383.790646,31.0746478 386.839451,28.5332048 389.888255,28.5332048 C392.040352,28.5332048 393.02673,28.7147365 395.716851,29.8946921 L396.88257,25.447167 L396.88257,25.447167 Z M461.176471,64.9302986 L461.176471,38.517445 C461.176471,34.3422173 460.548776,31.5284769 459.203715,29.3500972 C456.961947,25.8102302 452.747424,23.7226164 447.367181,23.7226164 C444.587389,23.7226164 441.179902,24.902572 438.579451,26.7178884 C437.055049,27.8070783 436.068671,28.8055023 434.185586,31.0746478 C432.212831,26.1732935 428.177649,23.6318506 422.349052,23.6318506 C416.96881,23.6318506 412.754286,25.9917619 409.526141,30.8023503 C409.077787,27.2624834 408.270751,25.447167 406.208324,23.6318506 L401.993801,25.7194644 C404.235569,27.8070783 404.773593,30.5300529 404.773593,38.8805083 L404.773593,64.6580011 L409.974494,64.6580011 L409.974494,35.0683439 C413.471652,30.4392871 417.148151,28.1701416 421.273004,28.1701416 C424.501149,28.1701416 426.832588,29.0777998 428.536332,31.0746478 C430.060734,32.8899642 430.509087,34.7960464 430.509087,39.6066349 L430.509087,64.8395328 L435.620318,64.8395328 L435.620318,38.517445 C435.620318,37.519021 435.620318,36.7021286 435.530647,34.977578 C438.848463,30.3485212 442.524963,28.0793757 446.918827,28.0793757 C450.326314,28.0793757 453.464789,29.7131605 454.989191,32.3453693 C455.975569,33.979154 456.154911,35.4314071 456.154911,40.3327614 L456.154911,64.748767 L461.176471,64.748767 L461.176471,64.9302986 Z" id="Shape"></path>
                    <path d="M2.05882353,101.404568 L2.05882353,112.988976 L4.38521199,112.988976 L4.38521199,108.76109 C4.83259439,108.76109 5.36945326,108.845648 5.54840622,108.845648 C6.89055341,108.845648 7.7853182,108.676532 8.50113003,108.338301 C9.75380074,107.746397 10.6485655,106.478031 10.6485655,105.125108 C10.6485655,103.856742 10.2011831,102.926607 9.39589483,102.250145 C8.50113003,101.573683 7.3379358,101.235452 5.45892974,101.235452 C5.01154734,101.235452 3.84835311,101.32001 3.0430648,101.32001 C3.0430648,101.32001 2.95358832,101.32001 2.77463536,101.32001 L2.05882353,101.404568 L2.05882353,101.404568 Z M4.38521199,103.095722 C4.83259439,103.095722 5.27997678,103.095722 5.54840622,103.095722 C7.3379358,103.095722 8.2327006,103.856742 8.2327006,105.209665 C8.2327006,106.478031 7.24845932,107.239051 5.45892974,107.239051 C5.1905003,107.239051 4.74311791,107.239051 4.29573551,107.239051 L4.29573551,103.095722 L4.38521199,103.095722 Z M20.3120253,102.165587 C19.2383075,101.404568 18.1645898,101.066337 16.7329661,101.066337 C14.5855306,101.066337 12.8854775,102.503818 12.8854775,104.364088 C12.8854775,105.463339 13.3328599,106.308916 14.2276247,106.90082 C14.7644836,107.239051 15.032913,107.408166 16.5540132,108.084628 C17.7172074,108.591974 18.1645898,109.099321 18.1645898,109.775783 C18.1645898,110.790475 17.3593015,111.466937 16.1961072,111.382379 C15.032913,111.297822 13.9591953,110.875033 12.8854775,109.86034 L12.5275716,111.974283 C13.8697188,112.819861 15.032913,113.158092 16.4645367,113.158092 C18.8804016,113.158092 20.6699312,111.636052 20.6699312,109.691225 C20.6699312,108.169186 19.9541194,107.323609 18.0751133,106.393474 C17.7172074,106.224358 17.3593015,106.055243 16.9119191,105.886127 C15.6592484,105.294223 15.211866,104.871435 15.3013425,104.110415 C15.3908189,103.349396 16.0171543,102.757491 16.9119191,102.757491 C17.8066839,102.757491 18.4330192,103.011165 19.5962135,103.772184 L20.3120253,102.165587 L20.3120253,102.165587 Z M27.6490966,105.886127 L24.3384669,101.150895 L22.0120784,101.573683 L26.3964259,107.830955 L26.3964259,112.988976 L28.7228143,112.988976 L28.7228143,107.830955 L33.1071618,101.573683 L31.0492028,101.150895 L27.6490966,105.886127 L27.6490966,105.886127 Z M43.7548629,102.165587 C42.5021921,101.404568 41.3389979,101.066337 39.8178978,101.066337 C38.2073211,101.066337 36.5967445,101.658241 35.4335503,102.588376 C34.1808796,103.687626 33.3755913,105.378781 33.3755913,107.069935 C33.3755913,108.930205 34.0019266,110.452244 35.1651208,111.551495 C36.3283151,112.650745 37.9388917,113.242649 39.5494683,113.242649 C41.2495214,113.242649 42.4127157,112.904418 43.7548629,112.058841 L42.8600981,110.367687 C41.9653333,110.959591 41.0705685,111.213264 39.8178978,111.213264 C38.8336565,111.213264 37.7599387,110.790475 37.0441269,110.114013 C36.2388386,109.352994 35.7914562,108.253744 35.7914562,107.069935 C35.7914562,104.702319 37.4020328,103.011165 39.7284213,103.011165 C40.7126626,103.011165 41.5179509,103.264838 42.5021921,103.856742 L43.7548629,102.165587 L43.7548629,102.165587 Z M48.4971163,106.1398 L48.4971163,101.404568 L46.1707278,101.404568 L46.1707278,112.988976 L48.4971163,112.988976 L48.4971163,107.830955 L54.2236109,107.830955 L54.2236109,112.988976 L56.5499994,112.988976 L56.5499994,101.404568 L54.2236109,101.404568 L54.2236109,106.1398 L48.4971163,106.1398 L48.4971163,106.1398 Z M65.4976473,101.066337 C61.8291117,101.235452 59.2342938,103.772184 59.2342938,107.154493 C59.2342938,110.705918 61.9185881,113.242649 65.5871238,113.242649 C69.4346124,113.242649 72.0294303,110.790475 72.0294303,107.154493 C72.0294303,103.603069 69.166183,100.897222 65.4976473,101.066337 L65.4976473,101.066337 Z M65.4081708,103.011165 C67.7345593,103.011165 69.5240889,104.871435 69.5240889,107.408166 C69.5240889,109.944898 67.9135122,111.551495 65.5871238,111.382379 C64.6028825,111.297822 63.7081177,110.959591 62.9923059,110.283129 C62.1870176,109.522109 61.6501587,108.253744 61.6501587,107.154493 C61.6501587,105.970685 61.9185881,105.125108 62.455447,104.448646 C63.1712588,103.518511 64.2449766,103.011165 65.4081708,103.011165 L65.4081708,103.011165 Z M77.0401131,101.404568 L74.7137247,101.404568 L74.7137247,112.988976 L82.050796,112.988976 L82.3192254,111.128706 L77.0401131,111.128706 L77.0401131,101.404568 L77.0401131,101.404568 Z M89.6562967,101.066337 C85.9877611,101.235452 83.3929432,103.772184 83.3929432,107.154493 C83.3929432,110.705918 86.0772375,113.242649 89.7457732,113.242649 C93.5932618,113.242649 96.1880797,110.790475 96.1880797,107.154493 C96.0986032,103.603069 93.2353559,100.897222 89.6562967,101.066337 L89.6562967,101.066337 Z M89.5668202,103.011165 C91.8932087,103.011165 93.6827383,104.871435 93.6827383,107.408166 C93.6827383,109.944898 92.0721616,111.551495 89.7457732,111.382379 C88.7615319,111.297822 87.8667671,110.959591 87.1509553,110.283129 C86.345667,109.522109 85.8088081,108.253744 85.8088081,107.154493 C85.8088081,105.970685 86.0772375,105.125108 86.6140964,104.448646 C87.3299082,103.518511 88.3141495,103.011165 89.5668202,103.011165 L89.5668202,103.011165 Z M109.609552,102.672934 C108.356881,101.573683 106.925257,101.150895 104.956775,101.150895 C101.288239,101.150895 98.5144681,103.772184 98.5144681,107.239051 C98.5144681,110.875033 101.198763,113.327207 105.046251,113.327207 C106.925257,113.327207 108.267404,112.904418 109.699028,112.058841 L109.699028,106.985378 L104.956775,106.985378 L104.777822,108.591974 L107.462116,108.591974 L107.462116,111.044148 C106.746304,111.466937 106.298922,111.466937 105.225204,111.466937 C104.330439,111.466937 103.256722,111.044148 102.54091,110.536802 C101.646145,109.775783 101.01981,108.507417 101.01981,107.239051 C101.01981,106.055243 101.288239,105.125108 101.914574,104.448646 C102.630386,103.603069 103.79358,103.011165 105.046251,103.011165 C106.298922,103.011165 107.37264,103.433953 108.267404,104.194973 L109.609552,102.672934 L109.609552,102.672934 Z M115.067617,101.404568 L112.741228,101.404568 L112.741228,112.988976 L115.067617,112.988976 L115.067617,101.404568 L115.067617,101.404568 Z M128.131183,102.165587 C126.878512,101.404568 125.715318,101.066337 124.194218,101.066337 C122.583641,101.066337 120.973064,101.658241 119.80987,102.588376 C118.557199,103.687626 117.751911,105.378781 117.751911,107.069935 C117.751911,108.930205 118.378247,110.452244 119.541441,111.551495 C120.704635,112.650745 122.315212,113.242649 123.925788,113.242649 C125.625841,113.242649 126.789036,112.904418 128.131183,112.058841 L127.236418,110.367687 C126.341653,110.959591 125.446888,111.213264 124.194218,111.213264 C123.209976,111.213264 122.136259,110.790475 121.420447,110.114013 C120.615159,109.352994 120.167776,108.253744 120.167776,107.069935 C120.167776,104.702319 121.778353,103.011165 124.104741,103.011165 C125.088982,103.011165 125.894271,103.264838 126.878512,103.856742 L128.131183,102.165587 L128.131183,102.165587 Z M139.494696,112.988976 L141.910561,112.988976 L136.720925,101.150895 L134.931395,101.150895 L129.652283,112.988976 L131.889195,112.988976 L133.231342,109.775783 L138.063072,109.775783 L139.494696,112.988976 L139.494696,112.988976 Z M137.526213,108.338301 L133.857677,108.338301 L135.736684,104.025857 L137.526213,108.338301 L137.526213,108.338301 Z M146.384385,101.404568 L144.057996,101.404568 L144.057996,112.988976 L151.395067,112.988976 L151.663497,111.128706 L146.384385,111.128706 L146.384385,101.404568 L146.384385,101.404568 Z M167.679787,112.988976 L170.095652,112.988976 L164.906016,101.150895 L163.116486,101.150895 L157.837374,112.988976 L160.074286,112.988976 L161.50591,109.775783 L166.337639,109.775783 L167.679787,112.988976 L167.679787,112.988976 Z M165.711304,108.338301 L162.042768,108.338301 L163.921774,104.025857 L165.711304,108.338301 L165.711304,108.338301 Z M172.332564,101.573683 L172.332564,112.988976 L174.390523,112.988976 L174.390523,105.04055 L181.906547,113.158092 L183.248694,112.819861 L183.248694,101.404568 L181.190735,101.404568 L181.190735,109.268436 L173.674711,101.235452 L172.332564,101.573683 L172.332564,101.573683 Z M186.469847,112.904418 C187.543565,112.988976 188.1699,113.073534 189.154142,113.073534 L190.227859,113.073534 C190.854195,113.073534 191.927912,112.988976 192.643724,112.819861 C193.538489,112.650745 194.254301,112.397072 194.880636,112.058841 C196.401736,111.128706 197.475454,109.268436 197.475454,107.408166 C197.475454,104.702319 196.043831,102.672934 193.627966,101.827356 C192.554248,101.489126 191.301577,101.235452 190.227859,101.235452 C188.617283,101.235452 188.259377,101.235452 186.559324,101.404568 L186.559324,112.904418 L186.469847,112.904418 Z M188.706759,103.095722 C188.885712,103.095722 189.064665,103.095722 189.064665,103.095722 L189.512048,103.095722 C189.780477,103.095722 190.048906,103.095722 190.406812,103.095722 C191.301577,103.18028 192.017389,103.349396 192.733201,103.687626 C194.075348,104.364088 195.059589,105.80157 195.059589,107.323609 C195.059589,108.422859 194.79116,109.352994 194.164824,110.114013 C193.449013,110.959591 192.196342,111.466937 190.585765,111.466937 C189.601524,111.466937 189.601524,111.466937 188.885712,111.382379 L188.885712,103.095722 L188.706759,103.095722 Z M211.970644,102.165587 C210.896926,101.404568 209.823208,101.066337 208.391585,101.066337 C206.244149,101.066337 204.544096,102.503818 204.544096,104.364088 C204.544096,105.463339 204.991478,106.308916 205.886243,106.90082 C206.423102,107.239051 206.691532,107.408166 208.212632,108.084628 C209.375826,108.591974 209.823208,109.099321 209.823208,109.775783 C209.823208,110.790475 209.01792,111.466937 207.854726,111.382379 C206.691532,111.297822 205.617814,110.875033 204.544096,109.86034 L204.18619,111.974283 C205.528337,112.819861 206.691532,113.158092 208.123155,113.158092 C210.53902,113.158092 212.32855,111.636052 212.32855,109.691225 C212.32855,108.169186 211.612738,107.323609 209.733732,106.393474 C209.375826,106.224358 209.01792,106.055243 208.570538,105.886127 C207.317867,105.294223 206.870484,104.871435 206.959961,104.110415 C207.049437,103.349396 207.675773,102.757491 208.570538,102.757491 C209.465302,102.757491 210.091638,103.011165 211.254832,103.772184 L211.970644,102.165587 L211.970644,102.165587 Z M215.102321,101.404568 L215.102321,112.988976 L217.428709,112.988976 L217.428709,108.76109 C217.876091,108.76109 218.41295,108.845648 218.591903,108.845648 C219.93405,108.845648 220.828815,108.676532 221.544627,108.338301 C222.797298,107.746397 223.692063,106.478031 223.692063,105.125108 C223.692063,103.856742 223.24468,102.926607 222.439392,102.250145 C221.544627,101.573683 220.381433,101.235452 218.502427,101.235452 C218.055044,101.235452 216.89185,101.32001 216.086562,101.32001 C216.086562,101.32001 215.997085,101.32001 215.818132,101.32001 L215.102321,101.404568 L215.102321,101.404568 Z M217.428709,103.095722 C217.876091,103.095722 218.323474,103.095722 218.591903,103.095722 C220.381433,103.095722 221.276198,103.856742 221.276198,105.209665 C221.276198,106.478031 220.291956,107.239051 218.502427,107.239051 C218.233997,107.239051 217.786615,107.239051 217.339233,107.239051 L217.339233,103.095722 L217.428709,103.095722 Z M228.523792,101.404568 L226.197404,101.404568 L226.197404,112.988976 L228.523792,112.988976 L228.523792,101.404568 L228.523792,101.404568 Z M231.655469,112.988976 L233.981858,112.988976 L233.981858,108.507417 L235.771387,108.507417 L238.813588,112.988976 L241.497882,112.988976 L237.918823,107.915513 C238.366205,107.746397 238.634635,107.577282 238.903064,107.408166 C239.708352,106.816262 240.155735,105.886127 240.155735,104.871435 C240.155735,102.588376 238.366205,101.32001 235.055575,101.32001 C233.892381,101.32001 233.176569,101.32001 231.744946,101.489126 L231.744946,112.988976 L231.655469,112.988976 Z M233.981858,102.926607 C234.518717,102.926607 234.608193,102.926607 234.876622,102.926607 L235.145052,102.926607 C236.845105,102.926607 237.829346,103.687626 237.829346,104.955992 C237.829346,105.970685 237.024058,106.90082 236.21877,106.90082 L233.981858,106.90082 L233.981858,102.926607 L233.981858,102.926607 Z M245.971706,101.404568 L243.645317,101.404568 L243.645317,112.988976 L245.971706,112.988976 L245.971706,101.404568 L245.971706,101.404568 Z M254.740401,103.18028 L258.677366,103.18028 L258.677366,101.404568 L248.477047,101.404568 L248.477047,103.18028 L252.414012,103.18028 L252.414012,112.988976 L254.740401,112.988976 L254.740401,103.18028 L254.740401,103.18028 Z M269.414543,101.404568 L269.414543,108.338301 C269.414543,109.352994 269.325067,109.944898 268.967161,110.452244 C268.519779,111.128706 267.625014,111.466937 266.372343,111.466937 C265.567055,111.466937 264.851243,111.213264 264.403861,110.959591 C263.777525,110.452244 263.509096,109.775783 263.509096,108.422859 L263.509096,101.489126 L261.182707,101.489126 L261.182707,108.507417 C261.182707,109.944898 261.451137,110.875033 261.987996,111.636052 C262.88276,112.819861 264.403861,113.411765 266.640773,113.411765 C267.98292,113.411765 269.414543,112.988976 270.219832,112.397072 C271.29355,111.551495 271.740932,110.452244 271.740932,108.507417 L271.740932,101.489126 L269.414543,101.489126 L269.414543,101.404568 Z M282.925492,112.988976 L285.341357,112.988976 L280.151721,101.150895 L278.362191,101.150895 L273.083079,112.988976 L275.319991,112.988976 L276.751615,109.775783 L281.583345,109.775783 L282.925492,112.988976 L282.925492,112.988976 Z M280.957009,108.338301 L277.288474,108.338301 L279.16748,104.025857 L280.957009,108.338301 L280.957009,108.338301 Z M289.904657,101.404568 L287.578269,101.404568 L287.578269,112.988976 L294.91534,112.988976 L295.183769,111.128706 L289.904657,111.128706 L289.904657,101.404568 L289.904657,101.404568 Z M302.341888,101.404568 L302.341888,112.988976 L304.668276,112.988976 L304.668276,108.76109 C305.115659,108.76109 305.652518,108.845648 305.831471,108.845648 C307.173618,108.845648 308.068383,108.676532 308.784194,108.338301 C310.036865,107.746397 310.93163,106.478031 310.93163,105.125108 C310.93163,103.856742 310.484247,102.926607 309.678959,102.250145 C308.784194,101.573683 307.621,101.235452 305.741994,101.235452 C305.294612,101.235452 304.131417,101.32001 303.326129,101.32001 C303.326129,101.32001 303.236653,101.32001 303.0577,101.32001 L302.341888,101.404568 L302.341888,101.404568 Z M304.5788,103.095722 C305.026182,103.095722 305.473565,103.095722 305.741994,103.095722 C307.531524,103.095722 308.426288,103.856742 308.426288,105.209665 C308.426288,106.478031 307.442047,107.239051 305.652518,107.239051 C305.384088,107.239051 304.936706,107.239051 304.489323,107.239051 L304.489323,103.095722 L304.5788,103.095722 Z M315.673883,103.18028 L320.505613,103.18028 L320.505613,101.404568 L313.436971,101.404568 L313.436971,112.988976 L321.042472,112.988976 L321.310901,111.213264 L315.673883,111.213264 L315.673883,107.830955 L320.058231,107.830955 L320.058231,106.1398 L315.673883,106.1398 L315.673883,103.18028 L315.673883,103.18028 Z M323.816243,112.988976 L326.142631,112.988976 L326.142631,108.507417 L327.932161,108.507417 L330.974361,112.988976 L333.658656,112.988976 L330.079596,107.915513 C330.526979,107.746397 330.795408,107.577282 331.063838,107.408166 C331.869126,106.816262 332.316508,105.886127 332.316508,104.871435 C332.316508,102.588376 330.526979,101.32001 327.216349,101.32001 C326.053155,101.32001 325.337343,101.32001 323.905719,101.489126 L323.905719,112.988976 L323.816243,112.988976 Z M326.053155,102.926607 C326.590014,102.926607 326.67949,102.926607 326.94792,102.926607 L327.216349,102.926607 C328.916402,102.926607 329.900643,103.687626 329.900643,104.955992 C329.900643,105.970685 329.095355,106.90082 328.290067,106.90082 L326.053155,106.90082 L326.053155,102.926607 L326.053155,102.926607 Z M342.964209,102.165587 C341.890492,101.404568 340.816774,101.066337 339.38515,101.066337 C337.237715,101.066337 335.537662,102.503818 335.537662,104.364088 C335.537662,105.463339 335.985044,106.308916 336.879809,106.90082 C337.416668,107.239051 337.685097,107.408166 339.206197,108.084628 C340.369392,108.591974 340.816774,109.099321 340.816774,109.775783 C340.816774,110.790475 340.011486,111.466937 338.848291,111.382379 C337.685097,111.297822 336.611379,110.875033 335.537662,109.86034 L335.179756,111.974283 C336.521903,112.819861 337.685097,113.158092 339.116721,113.158092 C341.532586,113.158092 343.322115,111.636052 343.322115,109.691225 C343.322115,108.169186 342.606303,107.323609 340.727297,106.393474 C340.369392,106.224358 340.011486,106.055243 339.564103,105.886127 C338.311432,105.294223 337.86405,104.871435 337.953527,104.110415 C338.043003,103.349396 338.669338,102.757491 339.564103,102.757491 C340.458868,102.757491 341.085203,103.011165 342.248398,103.772184 L342.964209,102.165587 L342.964209,102.165587 Z M346.095886,101.404568 L346.095886,112.988976 L348.422275,112.988976 L348.422275,108.76109 C348.869657,108.76109 349.406516,108.845648 349.585469,108.845648 C350.927616,108.845648 351.732904,108.676532 352.538193,108.338301 C353.790863,107.746397 354.685628,106.478031 354.685628,105.125108 C354.685628,103.856742 354.238246,102.926607 353.432957,102.250145 C352.538193,101.573683 351.374998,101.235452 349.495992,101.235452 C349.04861,101.235452 347.885416,101.32001 347.080127,101.32001 C347.080127,101.32001 346.990651,101.32001 346.811698,101.32001 L346.095886,101.404568 L346.095886,101.404568 Z M348.332798,103.095722 C348.780181,103.095722 349.227563,103.095722 349.495992,103.095722 C351.285522,103.095722 352.180287,103.856742 352.180287,105.209665 C352.180287,106.478031 351.196045,107.239051 349.406516,107.239051 C349.138086,107.239051 348.690704,107.239051 348.243322,107.239051 L348.243322,103.095722 L348.332798,103.095722 Z M359.338405,103.18028 L364.170135,103.18028 L364.170135,101.404568 L357.101493,101.404568 L357.101493,112.988976 L364.706994,112.988976 L364.975423,111.213264 L359.338405,111.213264 L359.338405,107.830955 L363.722753,107.830955 L363.722753,106.1398 L359.338405,106.1398 L359.338405,103.18028 L359.338405,103.18028 Z M376.696842,102.165587 C375.444171,101.404568 374.280977,101.066337 372.759877,101.066337 C371.1493,101.066337 369.538724,101.658241 368.37553,102.588376 C367.122859,103.687626 366.31757,105.378781 366.31757,107.069935 C366.31757,108.930205 366.943906,110.452244 368.1071,111.551495 C369.270294,112.650745 370.880871,113.242649 372.491448,113.242649 C374.191501,113.242649 375.354695,112.904418 376.696842,112.058841 L375.802077,110.367687 C374.907312,110.959591 374.012548,111.213264 372.759877,111.213264 C371.775636,111.213264 370.701918,110.790475 369.986106,110.114013 C369.180818,109.352994 368.733435,108.253744 368.733435,107.069935 C368.733435,104.702319 370.344012,103.011165 372.670401,103.011165 C373.654642,103.011165 374.45993,103.264838 375.444171,103.856742 L376.696842,102.165587 L376.696842,102.165587 Z M384.839202,103.18028 L388.776167,103.18028 L388.776167,101.404568 L378.575848,101.404568 L378.575848,103.18028 L382.512813,103.18028 L382.512813,112.988976 L384.839202,112.988976 L384.839202,103.18028 L384.839202,103.18028 Z M393.607897,101.404568 L391.281508,101.404568 L391.281508,112.988976 L393.607897,112.988976 L393.607897,101.404568 L393.607897,101.404568 Z M402.108162,109.944898 L398.439627,101.150895 L396.113238,101.573683 L401.123921,112.988976 L402.91345,112.988976 L407.924133,101.573683 L405.776698,101.150895 L402.108162,109.944898 L402.108162,109.944898 Z M412.57691,103.18028 L417.40864,103.18028 L417.40864,101.404568 L410.339998,101.404568 L410.339998,112.988976 L417.945499,112.988976 L418.213928,111.213264 L412.57691,111.213264 L412.57691,107.830955 L416.961258,107.830955 L416.961258,106.1398 L412.57691,106.1398 L412.57691,103.18028 L412.57691,103.18028 Z M427.877388,102.165587 C426.80367,101.404568 425.729953,101.066337 424.298329,101.066337 C422.150894,101.066337 420.45084,102.503818 420.45084,104.364088 C420.45084,105.463339 420.898223,106.308916 421.792988,106.90082 C422.329846,107.239051 422.598276,107.408166 424.119376,108.084628 C425.28257,108.591974 425.729953,109.099321 425.729953,109.775783 C425.729953,110.790475 424.924664,111.466937 423.76147,111.382379 C422.598276,111.297822 421.524558,110.875033 420.45084,109.86034 L420.092935,111.974283 C421.435082,112.819861 422.598276,113.158092 424.0299,113.158092 C426.445765,113.158092 428.235294,111.636052 428.235294,109.691225 C428.235294,108.169186 427.519482,107.323609 425.640476,106.393474 C425.28257,106.224358 424.924664,106.055243 424.477282,105.886127 C423.224611,105.294223 422.777229,104.871435 422.866705,104.110415 C422.956182,103.349396 423.582517,102.757491 424.477282,102.757491 C425.372047,102.757491 425.998382,103.011165 427.161576,103.772184 L427.877388,102.165587 L427.877388,102.165587 Z" id="Shape"></path>
                </g>
                <g transform="translate(459.187500, 0.000000)" id="Jung-Logo-Symbol">
                    <path d="M46.3926006,140 L46.3926006,140 L83.3173971,119.752345 L46.3926006,140 M46.2124797,139.911194 L1.45242153,115.045654 C-0.438848536,113.891182 -0.528909015,111.582239 1.45242153,110.516573 C2.98344967,109.628518 29.8214725,94.5315822 31.5326216,93.5547217 C32.5232868,93.0218887 33.5139521,92.6666667 34.5046174,92.6666667 C35.4952826,92.6666667 36.4859479,92.9330832 37.4766132,93.4659162 C38.197097,93.8211382 41.5293348,95.7748593 46.2124797,98.4390244 L46.2124797,98.4390244 L46.2124797,98.4390244 C46.2124797,119.929956 46.2124797,138.490306 46.2124797,139.911194 L46.2124797,139.911194 L46.2124797,139.911194" id="Shape" fill="#48BEEE"></path>
                    <path d="M45.8865756,31.9268602 C45.7957241,30.7695696 46.2499816,29.9683684 47.1584967,29.3452119 C47.2493482,29.2561895 47.3401997,29.2561895 47.5219027,29.1671672 C48.2487148,28.7220554 48.8846754,28.7220554 49.6114874,29.1671672 C59.6960049,34.5975309 69.8713738,40.0278946 79.9558913,45.4582583 C81.5003669,46.2594595 82.4997335,47.5947948 83.1356941,49.1971972 C83.2265456,49.4642643 83.3173971,50.2654655 83.3173971,50.6215549 C83.3173971,75.8148815 83.3173971,119.702903 83.3173971,119.702903 L45.9774271,140 C45.8865756,140 45.9774271,32.7280614 45.8865756,31.9268602" id="Path" fill="#0B73BA"></path>
                    <path d="M88.777445,41.1666667 C88.777445,41.1666667 67.3876941,30.1571897 56.9718154,24.6957956 C55.204836,23.7422189 53.4378565,22.8753309 51.5778782,21.9217542 C51.2058825,21.7483766 50.9268858,21.4883102 50.647889,21.2282438 C49.531902,20.1012895 49.7178998,18.4542024 51.1128836,17.5873144 C52.7868641,16.6337377 54.4608446,15.7668497 56.1348251,14.8999618 C64.8767233,10.2187669 73.6186216,5.53757195 82.4535187,0.85637702 C84.4994949,-0.270577314 86.545471,-0.270577314 88.6844461,0.769688225 C100.40231,6.92459267 126.721003,20.4480447 127,20.5347335 L88.777445,41.1666667 Z" id="Path" fill="#E98600"></path>
                    <path d="M45.875166,98.3333333 C59.3580132,105.914347 83.4860558,120.068166 83.3173971,119.734832 L45.9662663,140 C45.875166,138.501428 45.875166,119.577802 45.875166,98.3333333 Z" id="Path" fill="#483C74"></path>
                    <path d="M91.0830837,89 C89.7165789,88.8208169 88.7144754,87.7457181 88.7144754,86.312253 C88.7144754,83.2661397 88.7144754,40.8227931 88.7144754,40.8227931 L127,20.5 C127,20.5 126.9089,62.9538867 127,65.7312253 C127,66.9855072 126.635599,67.9710145 125.906796,68.9565217 C125.177994,69.942029 124.26699,70.7483531 123.082686,71.3754941 C113.061651,77.1093544 103.017226,82.7285903 92.9961904,88.4624506 C92.7228895,88.5520422 91.9940869,89 91.2652844,89 C91.174184,89 91.0830837,89 91.0830837,89 Z" id="Path" fill="#EB5A36"></path>
                </g>
            </g>
        </g>
    </g>
</svg>