<svg height="140" viewBox="0 0 586 140" width="586" xmlns="http://www.w3.org/2000/svg"><g fill="none"><g fill="#000" transform="translate(0 6)"><path d="m29.3223227 4.84332585h-11.1191682v39.48313165c0 8.8042845-2.1520971 11.7995566-8.42904692 11.7995566-2.51077993 0-4.48353559-.4538291-8.07036406-1.9060822l-1.70374352 8.8950503c4.21452345 2.1783797 7.44266908 2.8137404 12.9125825 2.8137404 5.5595841 0 10.9398268-2.5414429 13.5402775-6.4443732 2.0624263-3.0860379 2.779792-6.535139 2.779792-12.7979806v-41.84304295zm46.359758 18.97005635h-10.4018025v28.9542965c-3.2281457 3.3583354-5.6492549 4.538291-8.6980591 4.538291-5.3802427 0-7.6220105-2.8137404-7.6220105-9.2581136v-24.2344739h-10.4018025v25.3236637c0 5.3551834.4483535 8.2596897 1.7934142 10.7103668 2.0624264 3.6306328 6.4562912 6.0813099 11.5675218 6.3536074 5.5595841.2722974 9.5050955-1.4522531 14.2576432-6.08131.8967071 3.539867 3.0488042 5.3551834 6.9943155 5.8090125 2.1520971.2722975 3.5868285.1815317 6.545962-.3630633l1.3450606-6.535139c-2.2417678.0907658-3.407487-.2722975-4.2145234-1.0891898-.9863778-1.1799557-1.1657193-2.1783797-1.1657193-7.2612656zm8.9670712 1.5430189c2.2417678 2.7229746 2.6901214 5.082886 2.6901214 14.7040629v24.7790688h10.4018025v-28.1374042c3.2281452-3.7213986 6.0976082-5.4459492 9.3257542-5.4459492 2.51078 0 4.393865.8168924 5.828596 2.4506772 1.25539 1.5430189 1.703744 3.4491011 1.703744 7.3520314v23.7806448h10.401802v-27.3205118c0-9.1673478-5.559584-14.9763603-14.167972-14.9763603-5.02156 0-9.415425 2.1783797-13.6299485 6.8982023-.4483535-3.6306328-1.5244021-5.8090124-3.3178163-6.8982023zm88.0566391-1.6337847h-15.244021c-3.76617-1.2707215-5.02156-1.4522531-8.78773-1.4522531-9.056742 0-16.320069 6.9889681-16.320069 15.611721 0 6.2628416 3.407487 11.3457275 9.415424 13.8871704-3.048804 1.7245506-4.124852 3.0860379-4.662877 5.4459492-.538024 2.4506771.269012 4.2659935 2.42111 5.8090125-6.007938 1.996848-9.505096 6.3536074-9.505096 11.5272591 0 8.2596896 8.249706 13.9779363 19.996569 13.9779363s20.713934-6.7166707 20.713934-15.4301894c0-6.0813099-3.138475-10.075006-9.056742-11.7995566-.896707-.2722975-5.02156-1.2707215-10.850156-2.6322088-4.035182-.998424-5.290572-1.6337847-5.200901-2.995272.089671-.8168924.538024-1.3614873 1.703743-2.2691455 2.152098.1815316 1.883085.1815316 4.124853.1815316 3.048804 0 6.366621-.9076582 8.877401-2.5414429 4.573206-2.8137405 6.904644-7.079734 6.904644-12.7072148 0-2.7229746-.986377-5.6274809-2.959133-8.2596896l8.429047.3630633zm-22.776361 4.8105884c4.752548 0 7.891023 3.9936961 7.891023 10.3473035 0 4.8105885-2.869463 7.8966263-7.442669 7.8966263-4.573207 0-7.980694-4.2659935-7.980694-10.1657718 0-4.6290568 3.228146-8.078158 7.53234-8.078158zm1.614073 39.1200684c7.173657 1.6337848 9.146412 3.0860379 9.146412 6.7166707 0 4.2659935-4.035182 7.2612656-10.13279 7.2612656-6.456291 0-10.939827-3.2675696-10.939827-7.9873922 0-2.8137404 1.793414-5.2644175 5.738926-7.3520314zm30.398371-2.7229746h5.649255v-25.4144296c2.600451.0907659 5.828596.1815317 7.173657.1815317 5.559584 0 10.04312-.9076582 13.091924-2.541443 5.469913-2.8137404 9.056742-8.9858161 9.056742-14.9763603 0-5.6274808-1.614073-9.8027085-5.200902-12.9795122-3.676499-3.26756951-8.787729-4.71982263-16.947764-4.71982263-1.883085 0-6.187279.18153164-9.415425.4538291-.807036.09076582-1.883085.18153164-3.407487.27229746zm5.649255-55.45791594c3.407487-.27229746 5.380243-.36306328 7.083986-.36306328 10.850156 0 16.499411 4.35675932 16.499411 12.70721482 0 8.3504554-6.007937 13.1610438-16.320069 13.1610438-2.42111 0-4.483536 0-7.263328-.1815316zm38.020382-9.1673478v64.62526374h5.200901v-64.62526374zm15.961386 32.04033444c3.945512-2.2691455 7.801352-3.539867 11.836534-3.8121645 2.690122-.1815316 5.200902.544595 6.725304 2.0876139 1.614073 1.5430189 2.152097 3.2675695 2.062426 7.4427972v2.0876139c-5.380243.5445949-7.352998.8168924-9.415425 1.2707215-8.429046 1.9060822-12.822911 6.1720757-13.181594 12.7072147-.358683 6.7166707 4.304194 11.7995566 10.939827 11.7995566 4.393865 0 8.518717-1.5430189 12.195216-4.6290568.807037 3.0860379 2.959134 4.538291 6.635633 4.538291 1.165719 0 1.614073-.0907658 3.048804-.3630633l.627695-3.6306328c-.627695 0-1.524402.0907658-1.793414.0907658-1.793414 0-2.869463-.5445949-3.317816-1.8153164-.448354-.998424-.538025-2.0876138-.538025-6.1720757v-15.4301894c0-5.0828859-.538024-7.9873921-2.062426-9.8934743-2.152097-2.9952721-5.918267-4.538291-10.760485-4.538291-4.035182 0-8.339377 1.2707214-12.912583 3.8121644v4.4475252zm20.624264 25.5051954c-3.76617 2.8137404-6.456291 3.8121644-9.863778 3.8121644-4.662877 0-7.891023-3.1768037-7.622011-7.7150947.448354-6.2628416 4.662877-8.8950504 17.485789-10.4380693zm42.952271-32.9479927h-18.292825l.538024-11.5272591h-3.228145l-.358683 2.8137404c-.538025 4.9921201-.986378 6.7166707-1.883085 7.6243289-1.076049.998424-3.138475 1.5430189-6.456291 1.6337848l-2.331439.0907658v3.3583353h8.518718v22.9637524c0 5.4459492.179341 6.8074365.896707 8.7135187 1.165719 2.9952721 4.573206 4.9921201 8.429047 4.9921201 4.124852 0 6.635632-.5445949 10.043119-2.0876138l-.807036-3.8121645c-2.331439.9984241-3.586828 1.2707215-5.738926 1.4522532-2.60045.1815316-4.573206-.1815317-5.828596-1.1799557-1.524402-1.1799557-1.883085-2.995272-1.883085-8.7135187v-22.2376259h18.292825v-4.0844619zm18.203155 0h-11.029498v-6.535139c0-5.536715.717366-8.3504554 2.690121-10.61960092 1.703744-1.90608221 4.393865-3.08603787 7.891023-3.26756951 1.434731-.09076582 2.331439-.09076582 3.945511.18153164l.627695-4.26599353c-1.793414-.36306328-2.869462-.4538291-4.573206-.36306328-4.662877.27229746-8.608388 1.90608221-11.38818 4.81058845-3.048805 3.17680369-4.304195 7.17049975-4.304195 13.43334135v6.6259048h-8.518717v3.9936961h8.518717v35.9432647h5.200902v-35.8524989h10.939827zm21.610641-.998424c-11.208839 0-19.727556 9.076582-19.727556 21.0576702 0 4.9013543 1.524402 9.9842402 4.214523 13.5241072 3.586828 4.9921201 8.967071 7.4427972 16.140728 7.4427972 11.29851 0 19.189532-8.8950503 19.189532-21.6022651 0-11.7087908-8.429046-20.4223095-19.817227-20.4223095zm-.627695 4.4475252c8.967071 0 15.06468 7.0797339 15.06468 17.2455058 0 9.6211769-5.649255 16.0655501-14.078302 16.0655501-8.339376 0-14.705997-7.5335631-14.705997-17.3362716 0-9.4396453 5.559584-15.9747843 13.719619-15.9747843zm52.547037-2.9045062c-2.959133-1.2707215-4.304194-1.6337848-6.36662-1.6337848-3.676499 0-6.366621 2.0876139-11.029498 9.1673478-.179341-4.7198226-.986378-7.0797339-3.407487-9.1673478l-4.214523 2.0876139c2.241767 2.0876138 2.779792 4.8105884 2.779792 13.1610438v25.7774929h5.11123v-27.5928093c4.035182-6.1720757 7.083987-8.7135187 10.132791-8.7135187 2.152097 0 3.138475.1815317 5.828596 1.3614873zm64.293901 39.4831316v-26.4128536c0-4.1752277-.627695-6.9889681-1.972756-9.1673478-2.241768-3.539867-6.456291-5.6274808-11.836534-5.6274808-2.779792 0-6.187279 1.1799556-8.78773 2.995272-1.524402 1.0891899-2.51078 2.0876139-4.393865 4.3567594-1.972755-4.9013543-6.007937-7.4427972-11.836534-7.4427972-5.380242 0-9.594766 2.3599113-12.822911 7.1704997-.448354-3.5398669-1.25539-5.3551833-3.317817-7.1704997l-4.214523 2.0876138c2.241768 2.0876139 2.779792 4.8105885 2.779792 13.1610439v25.7774928h5.200901v-29.5896572c3.497158-4.6290568 7.173657-6.8982023 11.29851-6.8982023 3.228145 0 5.559584.9076582 7.263328 2.9045062 1.524402 1.8153164 1.972755 3.7213986 1.972755 8.5319871v25.2328979h5.111231v-26.3220878c0-.998424 0-1.8153164-.089671-3.539867 3.317816-4.6290568 6.994316-6.8982023 11.38818-6.8982023 3.407487 0 6.545962 1.6337848 8.070364 4.2659936.986378 1.6337847 1.16572 3.0860378 1.16572 7.9873921v24.4160056h5.02156z"/><path d="m2.05882353 101.404568v11.584408h2.32638846v-4.227886c.4473824 0 .98424127.084558 1.16319423.084558 1.34214719 0 2.23691198-.169116 2.95272381-.507347 1.25267071-.591904 2.14743547-1.86027 2.14743547-3.213193 0-1.268366-.4473824-2.198501-1.25267067-2.874963-.8947648-.676462-2.05795903-1.014693-3.93696509-1.014693-.4473824 0-1.61057663.084558-2.41586494.084558 0 0-.08947648 0-.26842944 0zm2.32638846 1.691154h1.16319423c1.78952958 0 2.68429438.76102 2.68429438 2.113943 0 1.268366-.98424128 2.029386-2.77377086 2.029386-.26842944 0-.71581183 0-1.16319423 0v-4.143329zm15.92681331-.930135c-1.0737178-.761019-2.1474355-1.09925-3.5790592-1.09925-2.1474355 0-3.8474886 1.437481-3.8474886 3.297751 0 1.099251.4473824 1.944828 1.3421472 2.536732.5368589.338231.8052883.507346 2.3263885 1.183808 1.1631942.507346 1.6105766 1.014693 1.6105766 1.691155 0 1.014692-.8052883 1.691154-1.9684826 1.606596-1.1631942-.084557-2.2369119-.507346-3.3106297-1.522039l-.3579059 2.113943c1.3421472.845578 2.5053414 1.183809 3.9369651 1.183809 2.4158649 0 4.2053945-1.52204 4.2053945-3.466867 0-1.522039-.7158118-2.367616-2.5948179-3.297751-.3579059-.169116-.7158118-.338231-1.1631942-.507347-1.2526707-.591904-1.7000531-1.014692-1.6105766-1.775712.0894764-.761019.7158118-1.352924 1.6105766-1.352924s1.5211001.253674 2.6842944 1.014693zm7.3370713 3.72054-3.3106297-4.735232-2.3263885.422788 4.3843475 6.257272v5.158021h2.3263884v-5.158021l4.3843475-6.257272-2.057959-.422788zm16.1057663-3.72054c-1.2526708-.761019-2.415865-1.09925-3.9369651-1.09925-1.6105767 0-3.2211533.591904-4.3843475 1.522039-1.2526707 1.09925-2.057959 2.790405-2.057959 4.481559 0 1.86027.6263353 3.382309 1.7895295 4.48156 1.1631943 1.09925 2.7737709 1.691154 4.3843475 1.691154 1.7000531 0 2.8632474-.338231 4.2053946-1.183808l-.8947648-1.691154c-.8947648.591904-1.7895296.845577-3.0422003.845577-.9842413 0-2.0579591-.422789-2.7737709-1.099251-.8052883-.761019-1.2526707-1.860269-1.2526707-3.044078 0-2.367616 1.6105766-4.05877 3.9369651-4.05877.9842413 0 1.7895296.253673 2.7737708.845577zm4.7422534 3.974213v-4.735232h-2.3263885v11.584408h2.3263885v-5.158021h5.7264946v5.158021h2.3263885v-11.584408h-2.3263885v4.735232zm17.000531-5.073463c-3.6685356.169115-6.2633535 2.705847-6.2633535 6.088156 0 3.551425 2.6842943 6.088156 6.35283 6.088156 3.8474886 0 6.4423065-2.452174 6.4423065-6.088156 0-3.551424-2.8632473-6.257271-6.531783-6.088156zm-.0894765 1.944828c2.3263885 0 4.1159181 1.86027 4.1159181 4.397001 0 2.536732-1.6105767 4.143329-3.9369651 3.974213-.9842413-.084557-1.8790061-.422788-2.5948179-1.09925-.8052883-.76102-1.3421472-2.029385-1.3421472-3.128636 0-1.183808.2684294-2.029385.8052883-2.705847.7158118-.930135 1.7895296-1.437481 2.9527238-1.437481zm11.6319423-1.606597h-2.3263884v11.584408h7.3370713l.2684294-1.86027h-5.2791123zm12.6161836-.338231c-3.6685356.169115-6.2633535 2.705847-6.2633535 6.088156 0 3.551425 2.6842943 6.088156 6.35283 6.088156 3.8474886 0 6.4423065-2.452174 6.4423065-6.088156-.0894765-3.551424-2.9527238-6.257271-6.531783-6.088156zm-.0894765 1.944828c2.3263885 0 4.1159181 1.86027 4.1159181 4.397001 0 2.536732-1.6105767 4.143329-3.9369651 3.974213-.9842413-.084557-1.8790061-.422788-2.5948179-1.09925-.8052883-.76102-1.3421472-2.029385-1.3421472-3.128636 0-1.183808.2684294-2.029385.8052883-2.705847.7158118-.930135 1.7000531-1.437481 2.9527238-1.437481zm20.0427318-.338231c-1.252671-1.099251-2.684295-1.522039-4.652777-1.522039-3.668536 0-6.4423069 2.621289-6.4423069 6.088156 0 3.635982 2.6842949 6.088156 6.5317829 6.088156 1.879006 0 3.221153-.422789 4.652777-1.268366v-5.073463h-4.742253l-.178953 1.606596h2.684294v2.452174c-.715812.422789-1.163194.422789-2.236912.422789-.894765 0-1.968482-.422789-2.684294-.930135-.894765-.761019-1.5211-2.029385-1.5211-3.297751 0-1.183808.268429-2.113943.894764-2.790405.715812-.845577 1.879006-1.437481 3.131677-1.437481s2.326389.422788 3.221153 1.183808zm5.458065-1.268366h-2.326389v11.584408h2.326389zm13.063566.761019c-1.252671-.761019-2.415865-1.09925-3.936965-1.09925-1.610577 0-3.221154.591904-4.384348 1.522039-1.252671 1.09925-2.057959 2.790405-2.057959 4.481559 0 1.86027.626336 3.382309 1.78953 4.48156 1.163194 1.09925 2.773771 1.691154 4.384347 1.691154 1.700053 0 2.863248-.338231 4.205395-1.183808l-.894765-1.691154c-.894765.591904-1.78953.845577-3.0422.845577-.984242 0-2.057959-.422789-2.773771-1.099251-.805288-.761019-1.252671-1.860269-1.252671-3.044078 0-2.367616 1.610577-4.05877 3.936965-4.05877.984241 0 1.78953.253673 2.773771.845577zm11.363513 10.823389h2.415865l-5.189636-11.838081h-1.78953l-5.279112 11.838081h2.236912l1.342147-3.213193h4.83173zm-1.968483-4.650675h-3.668536l1.879007-4.312444zm8.858172-6.933733h-2.326389v11.584408h7.337071l.26843-1.86027h-5.279112zm21.295402 11.584408h2.415865l-5.189636-11.838081h-1.78953l-5.279112 11.838081h2.236912l1.431624-3.213193h4.831729zm-1.968483-4.650675h-3.668536l1.879006-4.312444zm6.62126-6.764618v11.415293h2.057959v-7.948426l7.516024 8.117542 1.342147-.338231v-11.415293h-2.057959v7.863868l-7.516024-8.032984zm14.137283 11.330735c1.073718.084558 1.700053.169116 2.684295.169116h1.073717c.626336 0 1.700053-.084558 2.415865-.253673.894765-.169116 1.610577-.422789 2.236912-.76102 1.5211-.930135 2.594818-2.790405 2.594818-4.650675 0-2.705847-1.431623-4.735232-3.847488-5.58081-1.073718-.33823-2.326389-.591904-3.400107-.591904-1.610576 0-1.968482 0-3.668535.169116v11.49985zm2.236912-9.808696h.357906.447383.894764c.894765.084558 1.610577.253674 2.326389.591904 1.342147.676462 2.326388 2.113944 2.326388 3.635983 0 1.09925-.268429 2.029385-.894765 2.790404-.715811.845578-1.968482 1.352924-3.579059 1.352924-.984241 0-.984241 0-1.700053-.084558v-8.286657zm23.263885-.930135c-1.073718-.761019-2.147436-1.09925-3.579059-1.09925-2.147436 0-3.847489 1.437481-3.847489 3.297751 0 1.099251.447382 1.944828 1.342147 2.536732.536859.338231.805289.507346 2.326389 1.183808 1.163194.507346 1.610576 1.014693 1.610576 1.691155 0 1.014692-.805288 1.691154-1.968482 1.606596-1.163194-.084557-2.236912-.507346-3.31063-1.522039l-.357906 2.113943c1.342147.845578 2.505342 1.183809 3.936965 1.183809 2.415865 0 4.205395-1.52204 4.205395-3.466867 0-1.522039-.715812-2.367616-2.594818-3.297751-.357906-.169116-.715812-.338231-1.163194-.507347-1.252671-.591904-1.700054-1.014692-1.610577-1.775712.089476-.761019.715812-1.352924 1.610577-1.352924.894764 0 1.5211.253674 2.684294 1.014693zm3.131677-.761019v11.584408h2.326388v-4.227886c.447382 0 .984241.084558 1.163194.084558 1.342147 0 2.236912-.169116 2.952724-.507347 1.252671-.591904 2.147436-1.86027 2.147436-3.213193 0-1.268366-.447383-2.198501-1.252671-2.874963-.894765-.676462-2.057959-1.014693-3.936965-1.014693-.447383 0-1.610577.084558-2.415865.084558 0 0-.089477 0-.26843 0zm2.326388 1.691154h1.163194c1.78953 0 2.684295.76102 2.684295 2.113943 0 1.268366-.984242 2.029386-2.773771 2.029386-.26843 0-.715812 0-1.163194 0v-4.143329zm11.095083-1.691154h-2.326388v11.584408h2.326388zm3.131677 11.584408h2.326389v-4.481559h1.789529l3.042201 4.481559h2.684294l-3.579059-5.073463c.447382-.169116.715812-.338231.984241-.507347.805288-.591904 1.252671-1.522039 1.252671-2.536731 0-2.283059-1.78953-3.551425-5.10016-3.551425-1.163194 0-1.879006 0-3.310629.169116v11.49985zm2.326389-10.062369h.894764.26843c1.700053 0 2.684294.761019 2.684294 2.029385 0 1.014693-.805288 1.944828-1.610576 1.944828h-2.236912zm11.989848-1.522039h-2.326389v11.584408h2.326389zm8.768695 1.775712h3.936965v-1.775712h-10.200319v1.775712h3.936965v9.808696h2.326389zm14.674142-1.775712v6.933733c0 1.014693-.089476 1.606597-.447382 2.113943-.447382.676462-1.342147 1.014693-2.594818 1.014693-.805288 0-1.5211-.253673-1.968482-.507346-.626336-.507347-.894765-1.183808-.894765-2.536732v-6.933733h-2.326389v7.018291c0 1.437481.26843 2.367616.805289 3.128635.894764 1.183809 2.415865 1.775713 4.652777 1.775713 1.342147 0 2.77377-.422789 3.579059-1.014693 1.073718-.845577 1.5211-1.944828 1.5211-3.889655v-7.018291h-2.326389zm13.510949 11.584408h2.415865l-5.189636-11.838081h-1.78953l-5.279112 11.838081h2.236912l1.431624-3.213193h4.83173zm-1.968483-4.650675h-3.668535l1.879006-4.312444zm8.947648-6.933733h-2.326388v11.584408h7.337071l.268429-1.86027h-5.279112zm12.437231 0v11.584408h2.326388v-4.227886c.447383 0 .984242.084558 1.163195.084558 1.342147 0 2.236912-.169116 2.952723-.507347 1.252671-.591904 2.147436-1.86027 2.147436-3.213193 0-1.268366-.447383-2.198501-1.252671-2.874963-.894765-.676462-2.057959-1.014693-3.936965-1.014693-.447382 0-1.610577.084558-2.415865.084558 0 0-.089476 0-.268429 0zm2.236912 1.691154h1.163194c1.78953 0 2.684294.76102 2.684294 2.113943 0 1.268366-.984241 2.029386-2.77377 2.029386-.26843 0-.715812 0-1.163195 0v-4.143329zm11.095083.084558h4.83173v-1.775712h-7.068642v11.584408h7.605501l.268429-1.775712h-5.637018v-3.382309h4.384348v-1.691155h-4.384348zm8.14236 9.808696h2.326388v-4.481559h1.78953l3.0422 4.481559h2.684295l-3.57906-5.073463c.447383-.169116.715812-.338231.984242-.507347.805288-.591904 1.25267-1.522039 1.25267-2.536731 0-2.283059-1.789529-3.551425-5.100159-3.551425-1.163194 0-1.879006 0-3.31063.169116v11.49985zm2.236912-10.062369h.894765.268429c1.700053 0 2.684294.761019 2.684294 2.029385 0 1.014693-.805288 1.944828-1.610576 1.944828h-2.236912zm16.911054-.76102c-1.073717-.761019-2.147435-1.09925-3.579059-1.09925-2.147435 0-3.847488 1.437481-3.847488 3.297751 0 1.099251.447382 1.944828 1.342147 2.536732.536859.338231.805288.507346 2.326388 1.183808 1.163195.507346 1.610577 1.014693 1.610577 1.691155 0 1.014692-.805288 1.691154-1.968483 1.606596-1.163194-.084557-2.236912-.507346-3.310629-1.522039l-.357906 2.113943c1.342147.845578 2.505341 1.183809 3.936965 1.183809 2.415865 0 4.205394-1.52204 4.205394-3.466867 0-1.522039-.715812-2.367616-2.594818-3.297751-.357905-.169116-.715811-.338231-1.163194-.507347-1.252671-.591904-1.700053-1.014692-1.610576-1.775712.089476-.761019.715811-1.352924 1.610576-1.352924s1.5211.253674 2.684295 1.014693zm3.131677-.761019v11.584408h2.326389v-4.227886c.447382 0 .984241.084558 1.163194.084558 1.342147 0 2.147435-.169116 2.952724-.507347 1.25267-.591904 2.147435-1.86027 2.147435-3.213193 0-1.268366-.447382-2.198501-1.252671-2.874963-.894764-.676462-2.057959-1.014693-3.936965-1.014693-.447382 0-1.610576.084558-2.415865.084558 0 0-.089476 0-.268429 0zm2.236912 1.691154h1.163194c1.78953 0 2.684295.76102 2.684295 2.113943 0 1.268366-.984242 2.029386-2.773771 2.029386-.26843 0-.715812 0-1.163194 0v-4.143329zm11.005607.084558h4.83173v-1.775712h-7.068642v11.584408h7.605501l.268429-1.775712h-5.637018v-3.382309h4.384348v-1.691155h-4.384348zm17.358437-1.014693c-1.252671-.761019-2.415865-1.09925-3.936965-1.09925-1.610577 0-3.221153.591904-4.384347 1.522039-1.252671 1.09925-2.05796 2.790405-2.05796 4.481559 0 1.86027.626336 3.382309 1.78953 4.48156 1.163194 1.09925 2.773771 1.691154 4.384348 1.691154 1.700053 0 2.863247-.338231 4.205394-1.183808l-.894765-1.691154c-.894765.591904-1.789529.845577-3.0422.845577-.984241 0-2.057959-.422789-2.773771-1.099251-.805288-.761019-1.252671-1.860269-1.252671-3.044078 0-2.367616 1.610577-4.05877 3.936966-4.05877.984241 0 1.789529.253673 2.77377.845577zm8.14236 1.014693h3.936965v-1.775712h-10.200319v1.775712h3.936965v9.808696h2.326389zm8.768695-1.775712h-2.326389v11.584408h2.326389zm8.500265 8.54033-3.668535-8.794003-2.326389.422788 5.010683 11.415293h1.789529l5.010683-11.415293-2.147435-.422788zm10.468748-6.764618h4.83173v-1.775712h-7.068642v11.584408h7.605501l.268429-1.775712h-5.637018v-3.382309h4.384348v-1.691155h-4.384348zm15.300478-1.014693c-1.073718-.761019-2.147435-1.09925-3.579059-1.09925-2.147435 0-3.847489 1.437481-3.847489 3.297751 0 1.099251.447383 1.944828 1.342148 2.536732.536858.338231.805288.507346 2.326388 1.183808 1.163194.507346 1.610577 1.014693 1.610577 1.691155 0 1.014692-.805289 1.691154-1.968483 1.606596-1.163194-.084557-2.236912-.507346-3.31063-1.522039l-.357905 2.113943c1.342147.845578 2.505341 1.183809 3.936965 1.183809 2.415865 0 4.205394-1.52204 4.205394-3.466867 0-1.522039-.715812-2.367616-2.594818-3.297751-.357906-.169116-.715812-.338231-1.163194-.507347-1.252671-.591904-1.700053-1.014692-1.610577-1.775712.089477-.761019.715812-1.352924 1.610577-1.352924s1.5211.253674 2.684294 1.014693z"/></g><g transform="translate(459.1875)"><path d="m46.3926006 140 36.9247965-20.247655zm-.1801209-.088806-44.76005817-24.86554c-1.89127007-1.154472-1.98133055-3.463415 0-4.529081 1.53102814-.888055 28.36905097-15.9849908 30.08020007-16.9618513.9906652-.532833 1.9813305-.888055 2.9719958-.888055.9906652 0 1.9813305.2664165 2.9719958.7992495.7204838.355222 4.0527216 2.3089431 8.7358665 4.9731082z" fill="#48beee"/><path d="m45.8865756 31.9268602c-.0908515-1.1572906.363406-1.9584918 1.2719211-2.5816483.0908515-.0890224.181703-.0890224.363406-.1780447.7268121-.4451118 1.3627727-.4451118 2.0895847 0 10.0845175 5.4303637 20.2598864 10.8607274 30.3444039 16.2910911 1.5444756.8012012 2.5438422 2.1365365 3.1798028 3.7389389.0908515.2670671.181703 1.0682683.181703 1.4243577v69.0813481l-37.33997 20.297097c-.0908515 0 0-107.2719386-.0908515-108.0731398" fill="#0b73ba"/><path d="m88.777445 41.1666667s-21.3897509-11.009477-31.8056296-16.4708711c-1.7669794-.9535767-3.5339589-1.8204647-5.3939372-2.7740414-.3719957-.1733776-.6509924-.433444-.9299892-.6935104-1.115987-1.1269543-.9299892-2.7740414.4649946-3.6409294 1.6739805-.9535767 3.347961-1.8204647 5.0219415-2.6873526 8.7418982-4.6811949 17.4837965-9.36238985 26.3186936-14.04358478 2.0459762-1.12695433 4.0919523-1.12695433 6.2309274-.08668879 11.7178639 6.15490444 38.0365569 19.67835647 38.3155539 19.76504527z" fill="#e98600"/><path d="m45.875166 98.3333333c13.4828472 7.5810137 37.6108898 21.7348327 37.4422311 21.4014987l-37.3511308 20.265168c-.0911003-1.498572-.0911003-20.422198-.0911003-41.6666667z" fill="#483c74"/><path d="m91.0830837 89c-1.3665048-.1791831-2.3686083-1.2542819-2.3686083-2.687747 0-3.0461133 0-45.4894599 0-45.4894599l38.2855246-20.3227931s-.0911 42.4538867 0 45.2312253c0 1.2542819-.364401 2.2397892-1.093204 3.2252964-.728802.9855073-1.639806 1.7918314-2.82411 2.4189724-10.021035 5.7338603-20.06546 11.3530962-30.0864956 17.0869565-.2733009.0895916-1.0021035.5375494-1.730906.5375494-.0911004 0-.1822007 0-.1822007 0z" fill="#eb5a36"/></g></g></svg>